<?xml version="1.0" encoding="utf-8"?>
<!-- Generator: Adobe Illustrator 16.0.0, SVG Export Plug-In . SVG Version: 6.00 Build 0)  -->
<!DOCTYPE svg PUBLIC "-//W3C//DTD SVG 1.1//EN" "http://www.w3.org/Graphics/SVG/1.1/DTD/svg11.dtd">
<svg version="1.1" id="Vrstva_1" xmlns="http://www.w3.org/2000/svg" xmlns:xlink="http://www.w3.org/1999/xlink" x="0px" y="0px"
	 width="841.89px" height="595.28px" viewBox="0 0 841.89 595.28" enable-background="new 0 0 841.89 595.28" xml:space="preserve">
<g>
	<path fill-rule="evenodd" clip-rule="evenodd" d="M302.857,231.334c11.232,2.952,19.512,11.736,23.976,23.976
		c4.68,12.672,5.4,29.304,0.648,47.304c-4.968,19.151-15.12,36.216-27.72,47.951c-13.104,12.24-28.584,18.36-42.552,14.904
		c-14.04-3.527-23.328-15.84-26.712-32.399c-3.312-15.769-1.152-35.064,6.696-53.641c7.416-17.496,18.504-31.176,30.456-39.6
		C279.098,231.766,291.625,228.382,302.857,231.334L302.857,231.334z M251.233,353.733c-14.328-15.623-11.808-54.936-4.536-73.439
		c10.584-20.448,11.592-22.248,14.472,3.168c2.376,29.376-2.376,26.855,14.76,2.52c10.152-9.504,19.368-20.088,30.096-29.376
		c1.872-3.456,2.664-8.136,7.776-7.704c2.88,2.448-0.36,4.968-2.304,7.056c-18.216,10.584-53.208,44.28-51.048,68.472
		c4.608-2.304,7.92-14.472,12.96-18.576c13.536-17.208,30.24-24.84,45.648-39.312c8.136-3.456,3.672,7.488-5.472,7.488
		c-24.408,15.408-40.248,31.249-53.136,57.096C253.105,334.366,257.642,352.438,251.233,353.733L251.233,353.733z M264.481,335.086
		c-5.328-4.176,24.192-28.44,28.728-31.752c4.68-3.024,32.76-24.408,34.2-16.128c-3.096,5.616-6.048,4.896-11.016,4.896
		c-19.728,9.864-38.448,23.328-50.328,42.264C265.346,334.942,265.346,334.942,264.481,335.086L264.481,335.086z M250.658,360.646
		c-5.328-4.392,27.72-32.832,31.536-35.567c3.6-2.16,26.568-16.416,26.568-8.064c-10.296,25.704-30.24,31.536-53.496,42.192
		C253.826,360.357,252.529,360.574,250.658,360.646L250.658,360.646z"/>
	<path fill-rule="evenodd" clip-rule="evenodd" d="M349.874,296.854c0-1.152,0.072-2.088,0.072-2.664
		c0.072-0.576,0.072-1.44,0.144-2.592c0.216-3.888,0.288-8.208,0.288-12.96c0-1.296,0-2.448,0-3.312c0-0.864,0-1.8,0-2.808
		c-0.072-1.224-0.144-2.232-0.144-3.096c-0.072-0.792-0.072-1.944-0.144-3.24c-0.072-1.296-0.144-2.736-0.216-4.248
		c0.792,0.072,1.584,0.072,2.376,0.072s1.728,0,2.952-0.072c0.864-0.072,2.088-0.144,3.6-0.144c3.816,0,6.624,0.72,8.64,2.088
		c1.944,1.368,2.88,3.384,2.88,6.048c0,4.248-2.52,7.056-7.56,8.352c3.024,0.288,5.256,1.152,6.768,2.592
		c1.512,1.44,2.304,3.384,2.304,5.904c0,1.944-0.504,3.744-1.512,5.256c-1.008,1.584-2.448,2.808-4.248,3.672
		c-1.8,0.864-3.888,1.296-6.12,1.296c-0.072,0-0.216,0-0.288,0c-0.144-0.072-0.288-0.072-0.504-0.072l-3.6-0.072
		c-0.936-0.072-1.728-0.144-2.232-0.144C352.538,296.71,351.386,296.782,349.874,296.854L349.874,296.854z M355.058,279.79v14.472
		c1.368,0.216,2.448,0.36,3.24,0.36c2.664,0,4.68-0.648,6.192-2.016c1.44-1.368,2.16-3.24,2.16-5.76c0-1.44-0.36-2.808-0.936-3.96
		c-0.576-1.152-1.44-1.944-2.448-2.448c-1.224-0.576-2.808-0.864-4.68-0.864C357.578,279.574,356.425,279.646,355.058,279.79
		L355.058,279.79z M355.129,264.454l-0.072,12.96c0.36,0,0.72,0,1.08,0.072c0.36,0,0.648,0,1.008,0c2.592,0,4.608-0.576,5.976-1.8
		c1.44-1.224,2.16-2.952,2.16-5.184c0-0.864-0.144-1.728-0.36-2.448c-0.216-0.72-0.576-1.368-1.008-1.944s-0.936-0.936-1.512-1.224
		c-1.008-0.504-2.448-0.72-4.248-0.72C357.29,264.166,356.281,264.238,355.129,264.454L355.129,264.454z M376.657,279.862
		c0-2.664,0.432-5.184,1.296-7.488c0.936-2.232,2.16-4.176,3.816-5.832c1.656-1.656,3.6-2.952,5.904-3.816
		c2.232-0.864,4.68-1.368,7.344-1.368c2.736,0,5.184,0.504,7.488,1.368c2.304,0.864,4.248,2.16,5.904,3.744
		c1.584,1.584,2.88,3.528,3.744,5.688c0.936,2.232,1.368,4.68,1.368,7.272c0,2.592-0.432,5.04-1.368,7.2
		c-0.864,2.16-2.16,4.032-3.816,5.688c-1.656,1.584-3.672,2.808-5.976,3.672c-2.232,0.864-4.752,1.296-7.488,1.296
		c-2.664,0-5.112-0.432-7.344-1.296c-2.232-0.792-4.176-2.016-5.76-3.6c-1.656-1.512-2.88-3.384-3.816-5.544
		C377.089,284.758,376.657,282.382,376.657,279.862L376.657,279.862z M394.802,263.59c-2.016,0-3.816,0.36-5.4,1.08
		c-1.656,0.72-3.024,1.728-4.104,3.168c-1.152,1.368-2.016,3.096-2.592,5.112c-0.576,2.016-0.864,4.32-0.864,6.84
		c0,3.24,0.504,6.048,1.512,8.352c1.08,2.304,2.52,4.104,4.464,5.4c1.944,1.224,4.32,1.872,6.984,1.872
		c2.088,0,3.96-0.36,5.616-1.152c1.656-0.72,3.096-1.728,4.248-3.096c1.152-1.368,2.016-3.024,2.664-4.968
		c0.576-1.944,0.864-4.176,0.864-6.624c0-1.8-0.072-3.312-0.288-4.608c-0.216-1.368-0.576-2.592-1.008-3.672
		c-0.432-1.152-1.008-2.16-1.728-3.024c-0.648-0.864-1.44-1.656-2.376-2.304c-1.152-0.72-2.376-1.296-3.744-1.728
		C397.682,263.806,396.313,263.59,394.802,263.59L394.802,263.59z M440.306,261.934c-0.145,0.72-0.216,1.368-0.216,1.8
		c0,0.504,0.071,1.152,0.216,1.944c-2.017-0.288-3.96-0.504-5.832-0.576c-1.584-0.144-3.313-0.216-5.185-0.216
		c0,2.16-0.071,4.176-0.071,6.048c0,1.944-0.072,2.952-0.072,2.952s0,0.576,0,1.728c0,1.08,0,2.52,0.072,4.32
		c0,1.8,0.071,3.96,0.071,6.408c0,1.368,0.072,2.52,0.072,3.456c0.072,1.008,0.072,2.088,0.145,3.384
		c0,1.296,0.071,2.52,0.071,3.672c-1.296-0.072-2.231-0.144-2.664-0.144c-0.432,0-1.367,0.072-2.664,0.144
		c0.072-2.304,0.072-4.032,0.145-5.256c0.072-2.232,0.072-4.176,0.144-5.76c0-1.656,0.072-3.456,0.072-5.4
		c0-2.016,0.072-3.456,0.072-4.536c0-0.576-0.072-1.944-0.072-4.104c0-2.088-0.072-4.392-0.072-6.912c-1.8,0-3.6,0.072-5.256,0.216
		c-1.872,0.072-3.816,0.288-5.76,0.576c0.072-0.36,0.072-0.72,0.144-1.08c0.072-0.432,0.072-0.72,0.072-0.864
		c0-0.072-0.072-0.72-0.216-1.8c5.472,0.144,9.936,0.216,13.392,0.216S434.834,262.078,440.306,261.934L440.306,261.934z
		 M434.834,296.854c0.791-1.368,1.512-2.736,2.159-4.104c0.433-0.864,0.864-1.656,1.225-2.448c0.432-0.792,1.08-2.304,2.088-4.464
		s1.943-4.248,2.952-6.336c1.872-4.176,3.384-7.416,4.464-9.792c1.008-2.376,1.872-4.32,2.448-5.688l0.863-2.088
		c0.792,0.144,1.44,0.216,1.944,0.216s1.08-0.072,1.872-0.216l0.576,2.016c1.512,5.04,3.239,10.224,5.184,15.48
		c1.584,4.464,3.24,8.64,4.968,12.6c0.648,1.584,1.44,3.168,2.232,4.824c-1.008-0.072-2.088-0.072-3.24-0.072
		c-1.08,0-2.16,0-3.168,0.072c-0.288-1.008-0.576-2.016-0.864-2.952c-0.359-0.864-0.647-1.8-0.936-2.736
		c-0.576-1.872-1.44-4.248-2.376-6.984c-2.016-0.072-4.104-0.072-6.264-0.072c-2.521,0-4.824,0-6.912,0.072
		c-1.296,2.808-2.376,5.256-3.168,7.416c-0.288,0.504-0.504,1.08-0.721,1.656c-0.216,0.504-0.432,1.152-0.72,1.872
		c-0.288,0.72-0.432,1.296-0.647,1.728c-0.576-0.072-1.225-0.072-1.944-0.072S435.481,296.782,434.834,296.854L434.834,296.854z
		 M451.321,267.694l-6.191,13.824c1.8,0.072,3.672,0.072,5.688,0.072c1.872,0,3.744,0,5.544-0.072L451.321,267.694L451.321,267.694z
		 M470.689,261.934c0.504,0.072,1.008,0.072,1.512,0.072s1.009,0,1.513-0.072c3.239,4.176,6.048,7.704,8.424,10.584
		c1.008,1.224,1.943,2.376,2.88,3.6c0.936,1.152,1.872,2.232,2.736,3.168c0.792,1.008,1.871,2.304,3.239,3.816
		c0.576,0.72,1.08,1.296,1.44,1.728c0.432,0.432,1.008,1.152,1.728,2.016c0.792,0.864,1.513,1.728,2.232,2.448l0.144-3.24
		c0-1.152,0-3.6,0-7.416v-6.12c0-0.576,0-1.296,0-2.232c-0.071-0.864-0.071-1.728-0.144-2.592c0-0.936,0-1.8-0.072-2.664
		c0-0.864,0-1.944,0-3.096c0.433,0.072,0.937,0.072,1.513,0.072c0.575,0,1.008,0,1.439-0.072c-0.072,2.52-0.144,4.392-0.144,5.688
		c-0.072,1.656-0.072,3.528-0.145,5.616c0,2.016,0,3.816,0,5.256c0,2.016,0,3.816,0,5.328c0,1.512,0.072,2.952,0.072,4.176
		c0,1.224,0.072,2.304,0.072,3.24l0.071,5.616c-0.504-0.072-1.08-0.072-1.655-0.072c-0.505,0-1.009,0-1.513,0.072
		c-2.231-2.88-3.815-4.824-4.607-5.832c-0.864-1.08-1.584-1.944-2.305-2.808c-0.72-0.864-1.8-2.088-3.168-3.744
		c-0.575-0.72-1.439-1.8-2.592-3.168c-1.224-1.368-2.088-2.448-2.592-3.096c-0.576-0.648-1.368-1.584-2.376-2.736
		c-1.008-1.152-1.872-2.16-2.664-3.024l-2.088-2.304v2.016v2.592v4.68v5.184c0,1.224,0,3.24,0.072,5.976
		c0.071,2.808,0.144,4.896,0.144,6.264c-0.504-0.072-1.008-0.072-1.512-0.072s-1.008,0-1.44,0.072
		c0.072-2.016,0.072-3.384,0.145-3.96c0-0.648,0-1.224,0-1.872c0-0.792,0.071-2.016,0.144-3.672c0-1.656,0.072-3.168,0.072-4.536
		c0.072-1.368,0.072-2.448,0.072-3.312c0-2.592-0.072-4.896-0.145-6.984C471.05,269.782,470.905,266.254,470.689,261.934
		L470.689,261.934z M508.993,261.934c1.152,0.144,2.089,0.216,2.88,0.216c0.648,0,1.656-0.072,2.952-0.216
		c-0.144,1.224-0.216,2.952-0.359,5.112c-0.145,4.608-0.216,9-0.216,13.176c0,1.008,0,2.016,0,3.024c0,1.08,0.071,2.088,0.071,3.096
		c0.072,3.096,0.216,6.552,0.504,10.512c-1.296-0.072-2.231-0.144-2.808-0.144s-1.512,0.072-2.952,0.144
		c0.145-2.376,0.216-4.104,0.288-5.184c0.216-5.544,0.288-9.576,0.288-12.096c0-2.592-0.072-4.896-0.145-7.056
		c-0.071-1.728-0.071-3.312-0.144-4.68C509.281,266.398,509.138,264.454,508.993,261.934L508.993,261.934z M550.897,264.526
		c-0.36,1.368-0.647,2.736-0.792,4.176l-0.504,0.144c-2.52-3.456-5.832-5.184-10.008-5.184c-2.664,0-4.969,0.648-6.912,1.944
		c-2.017,1.296-3.528,3.168-4.536,5.616c-1.08,2.448-1.584,5.328-1.584,8.64c0,2.232,0.36,4.32,0.936,6.192
		c0.648,1.872,1.513,3.528,2.736,4.896c1.152,1.368,2.521,2.376,4.176,3.096c1.584,0.72,3.384,1.08,5.4,1.08
		c1.872,0,3.6-0.36,5.328-1.152c1.655-0.792,3.456-2.016,5.256-3.744l0.288,0.216c-0.216,1.152-0.432,1.872-0.432,2.16
		c-0.217,1.152-0.288,1.872-0.36,2.232c-0.433,0.144-0.792,0.36-1.08,0.504c-0.36,0.144-0.648,0.288-0.864,0.432
		c-2.52,1.008-5.256,1.584-8.28,1.584c-2.663,0-5.111-0.432-7.344-1.296c-2.231-0.864-4.176-2.088-5.832-3.744
		c-1.728-1.584-2.952-3.528-3.888-5.688c-0.864-2.16-1.296-4.536-1.296-7.128c0-3.096,0.72-6.048,2.16-8.856
		c3.096-6.12,8.64-9.216,16.416-9.216c2.159,0,4.248,0.36,6.264,1.008c0.792,0.216,1.512,0.432,2.16,0.72
		C548.953,263.446,549.817,263.878,550.897,264.526L550.897,264.526z M553.777,296.854c0.072-1.224,0.145-2.088,0.145-2.52
		c0-0.504,0.071-1.44,0.144-2.88c0.216-3.384,0.288-7.128,0.288-11.304c0-3.384,0-5.976-0.072-7.704
		c-0.072-2.448-0.288-5.904-0.504-10.512c1.225,0.144,2.16,0.216,2.88,0.216c0.721,0,1.656-0.072,2.809-0.216
		c-0.145,2.88-0.288,4.68-0.288,5.256c-0.072,2.52-0.145,5.256-0.145,8.28v3.024c2.952-2.952,5.185-5.256,6.553-6.768
		c1.439-1.584,3.096-3.6,4.896-5.976c1.152-1.44,2.088-2.736,2.808-3.816c1.009,0.072,1.801,0.144,2.376,0.144
		c0.505,0,1.225-0.072,2.232-0.144c-1.224,1.224-2.52,2.52-3.888,3.888c-2.017,2.016-3.672,3.816-4.969,5.256
		c-1.296,1.44-3.168,3.6-5.615,6.552c0.432,0.648,1.367,1.8,2.664,3.384c1.296,1.656,2.304,2.88,3.023,3.816
		c0.792,0.864,1.44,1.728,2.088,2.448c0.648,0.72,1.44,1.728,2.592,3.024c1.801,2.088,3.744,4.248,5.761,6.552
		c-1.8-0.072-3.097-0.144-3.816-0.144c-0.647,0-1.872,0.072-3.672,0.144c-1.152-1.728-2.231-3.24-3.168-4.536
		c-1.44-2.016-2.808-3.888-4.176-5.472c-1.368-1.656-3.24-3.744-5.688-6.336v3.24v2.52c0.072,1.944,0.072,3.312,0.145,4.248
		c0,0.864,0.072,3.024,0.216,6.336c-1.224-0.072-2.16-0.144-2.736-0.144C556.082,296.71,555.146,296.782,553.777,296.854
		L553.777,296.854z M575.953,261.934c1.368,0.144,2.521,0.216,3.385,0.216c0.863,0,1.943-0.072,3.239-0.216
		c1.872,3.816,3.673,7.344,5.473,10.584c0.504,0.936,1.08,1.872,1.655,2.88c0.576,1.008,1.368,2.376,2.377,4.032
		c0.432-0.72,0.791-1.368,1.079-1.944c0.36-0.576,0.648-1.08,0.864-1.584c0.288-0.504,0.576-1.008,0.864-1.512
		c0.288-0.576,0.576-1.152,0.864-1.728c2.159-4.104,3.888-7.704,5.328-10.728c0.575,0.072,1.296,0.144,1.943,0.144
		c0.792,0,1.512-0.072,2.232-0.144c-0.937,1.512-1.656,2.592-2.088,3.24c-0.36,0.648-0.864,1.44-1.368,2.232
		c-0.504,0.864-1.08,1.8-1.729,2.88c-0.647,1.08-1.08,1.8-1.296,2.16c-0.647,1.08-2.376,4.248-5.328,9.504v2.16v2.232
		c0.072,3.384,0.145,6.912,0.36,10.512c-1.368-0.072-2.304-0.144-2.808-0.144c-0.505,0-1.513,0.072-2.881,0.144
		c0.145-2.16,0.288-4.032,0.36-5.472c0-1.44,0.072-3.096,0.072-5.04c0.071-0.504,0.071-1.152,0.071-2.016v-1.368
		c-1.079-1.944-2.159-3.888-3.239-5.832c-1.152-1.944-2.017-3.528-2.736-4.68c-1.08-1.872-2.231-3.672-3.384-5.472
		C578.113,265.174,576.962,263.446,575.953,261.934L575.953,261.934z M587.978,258.19c1.368-1.656,2.304-2.808,2.808-3.456
		c0.721-1.008,1.584-2.16,2.664-3.6c0.864,0.144,1.872,0.144,2.88,0.144c1.009,0,2.017,0,2.88-0.144
		c-2.231,1.44-3.959,2.664-5.256,3.672c-1.296,1.08-2.52,2.232-3.744,3.456c-0.791-0.072-1.224-0.144-1.224-0.144
		C588.625,258.118,588.266,258.19,587.978,258.19L587.978,258.19z"/>
	<path fill-rule="evenodd" clip-rule="evenodd" d="M349.874,308.878c1.152,0.144,2.088,0.216,2.88,0.216
		c0.648,0,1.584-0.072,2.736-0.216c-0.288,4.536-0.432,8.064-0.432,10.584v2.448v5.111c0,3.96,0.072,6.48,0.288,7.561
		c0.36,2.088,1.512,3.815,3.384,5.112c1.872,1.367,4.104,2.016,6.696,2.016c1.584,0,3.024-0.288,4.392-0.792
		c1.296-0.576,2.52-1.368,3.528-2.376c1.008-1.008,1.728-2.232,2.304-3.672c0.288-0.864,0.504-2.017,0.72-3.456
		c0.144-1.44,0.216-3.168,0.216-5.112v-4.464v-1.584v-0.864c-0.072-3.096-0.144-6.552-0.288-10.512
		c0.432,0.072,0.936,0.144,1.44,0.144c0.576,0,1.08-0.071,1.584-0.144c-0.072,1.224-0.144,2.808-0.144,4.752
		c-0.072,1.944-0.144,3.888-0.144,5.832v1.728v0.648v3.888v0.433c0,2.592,0,4.176-0.072,4.752c-0.072,1.872-0.504,3.672-1.224,5.328
		c-0.792,1.655-1.8,3.096-3.096,4.319c-1.296,1.152-2.808,2.088-4.536,2.809c-1.8,0.647-3.672,0.936-5.688,0.936
		c-1.872,0-3.672-0.288-5.4-0.864c-1.656-0.647-3.168-1.439-4.536-2.592c-1.44-1.08-2.448-2.376-3.24-3.744
		c-0.72-1.439-1.08-2.88-1.08-4.392l0.072-6.84v-3.96v-2.448C350.233,317.302,350.089,313.773,349.874,308.878L349.874,308.878z
		 M361.97,305.206c1.368-1.656,2.376-2.809,2.808-3.456c0.72-1.008,1.656-2.232,2.664-3.6c0.936,0.072,1.872,0.144,2.952,0.144
		c1.008,0,1.944-0.072,2.808-0.144c-1.152,0.792-2.16,1.44-3.024,2.016c-0.792,0.576-1.512,1.08-2.232,1.656
		c-1.368,1.151-2.664,2.304-3.744,3.384c-0.72,0-1.152-0.072-1.224-0.072C362.618,305.134,362.33,305.134,361.97,305.206
		L361.97,305.206z M382.489,341.998c0.36-0.792,0.576-1.44,0.72-2.017c0.072-0.359,0.216-1.079,0.504-2.159l0.36-0.217
		c0.576,0.937,1.224,1.801,1.944,2.448c0.72,0.648,1.512,1.152,2.376,1.512c0.864,0.288,1.8,0.505,2.808,0.505
		c1.296,0,2.52-0.288,3.6-0.937c1.152-0.576,2.016-1.368,2.592-2.448c0.648-1.008,0.936-2.159,0.936-3.384
		c0-1.512-0.36-2.736-1.008-3.744c-0.648-0.936-1.656-1.728-3.096-2.447l-4.824-2.089c-2.016-0.936-3.528-2.159-4.608-3.672
		c-1.008-1.512-1.584-3.239-1.584-5.184c0-1.8,0.504-3.528,1.512-5.04c1.008-1.44,2.376-2.664,4.104-3.456
		c1.8-0.864,3.744-1.296,5.976-1.296c2.88,0,5.4,0.72,7.704,2.16c-0.504,0.936-0.792,1.439-0.864,1.655
		c-0.216,0.576-0.504,1.296-0.792,2.089l-0.432,0.071c-0.36-0.647-0.72-1.151-1.08-1.512c-0.648-0.72-1.44-1.224-2.376-1.584
		c-0.936-0.432-1.872-0.576-2.88-0.576c-1.224,0-2.304,0.216-3.24,0.72c-0.936,0.576-1.656,1.225-2.232,2.16
		c-0.504,0.937-0.792,1.944-0.792,3.097c0,2.52,1.44,4.392,4.248,5.76l4.248,2.016c2.376,1.08,4.104,2.304,5.112,3.744
		c1.08,1.368,1.584,3.024,1.584,5.112c0,2.016-0.504,3.888-1.584,5.544c-1.008,1.728-2.448,3.023-4.32,4.032
		c-1.872,0.936-3.96,1.439-6.264,1.439C387.817,344.302,385.009,343.51,382.489,341.998L382.489,341.998z M431.737,308.878
		c-0.144,0.792-0.216,1.368-0.216,1.872c0,0.432,0.072,1.08,0.216,1.944c-2.016-0.288-3.96-0.505-5.832-0.648
		c-1.584-0.072-3.312-0.144-5.184-0.144c0,2.088-0.072,4.104-0.072,6.048c0,1.943-0.072,2.88-0.072,2.88c0,0.072,0,0.647,0,1.8
		c0,1.08,0,2.52,0.072,4.32c0,1.8,0.072,3.96,0.072,6.407c0,1.297,0.072,2.448,0.072,3.456c0.071,0.937,0.071,2.089,0.144,3.385
		c0,1.296,0.072,2.52,0.072,3.672c-1.296-0.145-2.232-0.145-2.664-0.145c-0.432,0-1.368,0-2.664,0.145
		c0.072-2.305,0.072-4.104,0.144-5.328c0.072-2.232,0.072-4.104,0.144-5.76c0-1.584,0.072-3.385,0.072-5.4
		c0-1.944,0.072-3.456,0.072-4.464c0-0.648-0.072-2.016-0.072-4.104c0-2.088-0.072-4.392-0.072-6.911c-1.8,0-3.6,0.071-5.256,0.144
		c-1.872,0.144-3.816,0.36-5.76,0.648c0.072-0.36,0.072-0.721,0.144-1.152c0.072-0.36,0.072-0.648,0.072-0.792
		c0-0.145-0.072-0.72-0.216-1.872c5.472,0.144,9.936,0.216,13.392,0.216S426.266,309.021,431.737,308.878L431.737,308.878z
		 M429.146,343.87c0.792-1.368,1.512-2.736,2.232-4.104c0.432-0.863,0.792-1.655,1.224-2.52c0.36-0.792,1.08-2.232,2.016-4.393
		c1.008-2.159,2.017-4.319,2.952-6.336c1.944-4.176,3.384-7.416,4.464-9.863c1.08-2.376,1.872-4.248,2.448-5.616l0.937-2.16
		c0.792,0.144,1.439,0.216,1.943,0.216c0.433,0,1.08-0.072,1.8-0.216l0.576,2.088c1.584,5.04,3.313,10.152,5.185,15.48
		c1.655,4.464,3.312,8.64,4.968,12.6c0.72,1.584,1.439,3.168,2.231,4.824c-1.008-0.072-2.088-0.145-3.168-0.145
		c-1.151,0-2.159,0.072-3.239,0.145c-0.288-1.08-0.576-2.017-0.864-2.952c-0.288-0.937-0.576-1.8-0.864-2.736
		c-0.647-1.943-1.439-4.248-2.448-6.983c-2.016-0.072-4.104-0.145-6.264-0.145c-2.448,0-4.824,0.072-6.912,0.145
		c-1.296,2.735-2.376,5.256-3.168,7.344c-0.216,0.576-0.504,1.152-0.72,1.656c-0.216,0.575-0.433,1.224-0.72,1.943
		c-0.217,0.721-0.433,1.296-0.576,1.729c-0.648-0.072-1.296-0.145-2.017-0.145C430.514,343.726,429.794,343.798,429.146,343.87
		L429.146,343.87z M445.705,314.71l-6.264,13.824c1.8,0,3.744,0.071,5.688,0.071c1.943,0,3.815-0.071,5.615-0.071L445.705,314.71
		L445.705,314.71z M458.665,308.878c1.368,0.144,2.448,0.216,3.24,0.216c0.648,0,1.729-0.072,3.24-0.216
		c1.296,4.176,2.52,7.704,3.6,10.656c1.152,3.168,2.232,5.976,3.24,8.424c0.937,2.376,2.232,5.399,3.816,9
		c1.08-2.376,1.872-4.248,2.376-5.544c0.576-1.296,1.08-2.592,1.584-3.816c0.504-1.224,1.08-2.735,1.728-4.392
		c0.648-1.729,1.08-2.952,1.368-3.672c0.36-1.08,0.792-2.16,1.152-3.313c0.432-1.151,1.224-3.6,2.447-7.344
		c0.576,0.072,1.225,0.144,1.944,0.144c0.648,0,1.296-0.071,1.872-0.144c-0.432,1.008-0.936,2.016-1.368,3.096
		c-0.504,1.008-0.864,1.872-1.224,2.736c-0.36,0.792-0.792,1.656-1.225,2.592c-0.359,0.937-0.72,1.656-0.936,2.232
		c-0.864,1.943-2.448,5.903-4.824,12.023c-0.647,1.656-1.08,2.809-1.296,3.528c-0.288,0.647-0.504,1.368-0.792,2.088
		s-0.647,1.729-1.152,2.952c-0.432,1.296-0.863,2.52-1.296,3.744c-0.575-0.072-1.151-0.145-1.728-0.145
		c-0.648,0-1.152,0.072-1.656,0.145c-0.936-2.664-1.728-4.752-2.304-6.336c-0.504-1.584-1.225-3.601-2.16-5.977
		c-1.872-4.896-3.456-8.928-4.824-12.023C462.338,316.726,460.682,313.198,458.665,308.878L458.665,308.878z M500.138,343.87
		c0.576-1.152,1.224-2.232,1.8-3.385c0.288-0.647,0.648-1.367,0.936-2.016c0.36-0.647,0.937-1.872,1.729-3.6
		c0.792-1.8,1.584-3.528,2.376-5.256c1.584-3.385,2.808-6.049,3.672-7.992c0.864-2.017,1.512-3.528,2.016-4.68l0.721-1.729
		c0.647,0.144,1.151,0.216,1.584,0.216c0.432,0,0.936-0.072,1.512-0.216l0.504,1.656c1.224,4.176,2.664,8.352,4.248,12.744
		c1.296,3.6,2.664,7.056,4.032,10.296c0.576,1.296,1.224,2.592,1.872,3.96c-0.864-0.072-1.729-0.072-2.664-0.072
		c-0.864,0-1.729,0-2.592,0.072c-0.288-0.864-0.504-1.656-0.721-2.448c-0.288-0.72-0.504-1.44-0.72-2.232
		c-0.504-1.584-1.224-3.456-2.016-5.688c-1.656-0.072-3.313-0.145-5.112-0.145c-2.016,0-3.96,0.072-5.688,0.145
		c-1.079,2.231-1.943,4.248-2.592,6.048c-0.216,0.432-0.359,0.864-0.576,1.368c-0.144,0.432-0.359,0.936-0.575,1.512
		c-0.217,0.576-0.36,1.08-0.504,1.44c-0.505-0.072-1.08-0.072-1.656-0.072C501.218,343.798,500.642,343.798,500.138,343.87
		L500.138,343.87z M513.602,319.966l-5.04,11.304c1.44,0.072,3.024,0.072,4.608,0.072s3.096,0,4.607-0.072L513.602,319.966
		L513.602,319.966z M524.258,315.214c1.151,0.072,2.016,0.144,2.664,0.144c0.575,0,1.439-0.071,2.664-0.144
		c1.079,3.384,2.016,6.336,2.951,8.712c0.937,2.592,1.801,4.896,2.593,6.912c0.863,1.944,1.872,4.392,3.168,7.344
		c0.863-1.943,1.512-3.456,1.943-4.536c0.504-1.008,0.937-2.088,1.296-3.096c0.433-1.008,0.864-2.232,1.44-3.6
		c0.504-1.44,0.864-2.448,1.08-3.024c0.36-0.864,0.647-1.728,1.008-2.736c0.288-0.936,1.008-2.951,1.944-5.976
		c0.504,0.072,1.008,0.072,1.655,0.072c0.505,0,1.009,0,1.513-0.072c-0.36,0.864-0.792,1.656-1.152,2.52
		c-0.36,0.793-0.72,1.584-1.008,2.232s-0.648,1.368-0.936,2.16c-0.36,0.72-0.648,1.368-0.864,1.8
		c-0.648,1.584-1.944,4.824-3.889,9.864c-0.504,1.368-0.863,2.304-1.079,2.88c-0.217,0.504-0.433,1.08-0.648,1.728
		c-0.216,0.576-0.504,1.368-0.937,2.448c-0.359,1.008-0.72,2.017-1.079,3.024c-0.433-0.072-0.937-0.072-1.44-0.072
		s-0.937,0-1.368,0.072c-0.72-2.16-1.368-3.889-1.8-5.185s-1.08-2.952-1.8-4.896c-1.513-4.032-2.88-7.272-3.96-9.864
		C527.281,321.622,525.913,318.742,524.258,315.214L524.258,315.214z M584.378,317.374c-0.288,1.08-0.505,2.231-0.576,3.384
		l-0.433,0.145c-2.088-2.809-4.823-4.248-8.208-4.248c-2.159,0-4.031,0.575-5.688,1.584c-1.584,1.079-2.88,2.592-3.672,4.607
		c-0.864,2.017-1.296,4.393-1.296,7.057c0,1.871,0.216,3.527,0.72,5.111c0.504,1.513,1.296,2.88,2.231,3.96
		c1.009,1.152,2.089,2.017,3.456,2.592c1.296,0.576,2.736,0.864,4.393,0.864c1.512,0,3.023-0.288,4.392-0.936
		c1.368-0.648,2.809-1.656,4.248-3.024l0.288,0.145c-0.216,0.936-0.36,1.512-0.36,1.728c-0.144,0.937-0.216,1.584-0.287,1.872
		c-0.36,0.144-0.648,0.288-0.864,0.36c-0.288,0.144-0.504,0.288-0.72,0.359c-2.089,0.864-4.32,1.296-6.769,1.296
		c-2.231,0-4.176-0.359-6.048-1.008c-1.8-0.72-3.384-1.728-4.752-3.096c-1.44-1.296-2.448-2.88-3.168-4.68
		c-0.72-1.729-1.08-3.744-1.08-5.832c0-2.521,0.576-4.969,1.728-7.272c2.593-4.968,7.057-7.488,13.465-7.488
		c1.8,0,3.527,0.217,5.111,0.792c0.72,0.145,1.296,0.36,1.8,0.576S583.514,316.87,584.378,317.374L584.378,317.374z
		 M567.529,307.438c0.433-0.144,0.864-0.216,1.225-0.432c0.432-0.144,0.863-0.36,1.296-0.648c0.792,0.864,1.584,1.656,2.376,2.376
		c0.432,0.36,0.72,0.648,0.863,0.721c0.072,0.072,0.288,0.216,0.504,0.432c0.289,0.216,0.576,0.432,0.937,0.72
		c0.648-0.647,1.152-1.224,1.584-1.728c0.504-0.864,1.008-1.656,1.44-2.521c0.792,0.433,1.728,0.648,2.664,0.792
		c-1.08,0.937-1.872,1.872-2.521,2.664c-0.576,0.648-1.08,1.44-1.656,2.376h-2.735c-0.937-1.008-1.944-1.872-2.881-2.663
		C569.546,308.733,568.466,308.014,567.529,307.438L567.529,307.438z M587.617,343.87c0-1.008,0.072-1.729,0.072-2.232
		c0-0.432,0.072-1.152,0.072-2.16c0.216-3.023,0.288-6.479,0.288-10.151c0-1.225-0.072-3.024-0.072-5.4
		c-0.144-3.96-0.288-6.84-0.36-8.64c0.937,0.071,1.584,0.144,2.088,0.144c0.792,0,1.872-0.072,3.24-0.216
		c0.937-0.072,1.872-0.072,2.736-0.072c1.943,0,3.527,0.216,4.896,0.792s2.376,1.368,3.097,2.448
		c0.792,1.08,1.151,2.376,1.151,3.816c0,1.367-0.432,2.735-1.224,3.96c-0.792,1.296-1.872,2.159-3.096,2.735
		c-0.648,0.288-1.297,0.433-1.944,0.576c-0.648,0.145-1.296,0.216-2.088,0.288c0.144,0.145,0.216,0.216,0.216,0.288
		c0.072,0.144,0.145,0.216,0.216,0.288c0.072,0.144,0.145,0.216,0.216,0.288c0,0.072,0.072,0.216,0.145,0.288
		c0.576,0.72,1.152,1.439,1.728,2.16c0.576,0.72,1.296,1.584,2.16,2.735c1.08,1.296,3.456,3.96,7.128,8.064
		c-1.368-0.072-2.304-0.145-2.808-0.145c-0.576,0-1.656,0.072-3.096,0.145c-1.08-1.656-2.017-3.097-2.881-4.248
		c-0.792-1.225-1.728-2.376-2.663-3.672c-1.729-2.088-3.385-4.104-4.969-5.832c0,0.359,0,0.792,0,1.367c0,0.576,0,0.937,0,1.152
		c0,0.288,0,0.504,0,0.864v1.656c0,2.735,0.145,5.615,0.288,8.712c-1.151-0.072-1.944-0.145-2.304-0.145
		C589.346,343.726,588.625,343.798,587.617,343.87L587.617,343.87z M591.865,317.374v11.16c0.504,0.071,1.08,0.071,1.8,0.071
		c2.232,0,3.96-0.504,5.185-1.512c1.224-1.008,1.8-2.52,1.8-4.392c0-1.152-0.216-2.16-0.72-3.024
		c-0.433-0.936-1.08-1.584-1.872-1.872c-0.792-0.432-1.944-0.647-3.384-0.647C593.81,317.158,592.873,317.229,591.865,317.374
		L591.865,317.374z"/>
	<path fill-rule="evenodd" clip-rule="evenodd" d="M608.065,363.742c0-0.36,0.144-0.721,0.432-1.009
		c0.217-0.287,0.576-0.432,1.009-0.432c0.432,0,0.72,0.145,1.008,0.432c0.288,0.288,0.432,0.648,0.432,1.009
		c0,0.432-0.144,0.72-0.432,1.008s-0.576,0.432-1.008,0.432c-0.433,0-0.721-0.144-1.009-0.359
		C608.209,364.534,608.065,364.174,608.065,363.742L608.065,363.742z"/>
	<path fill-rule="evenodd" clip-rule="evenodd" d="M603.025,349.342c0-0.36,0.072-0.647,0.36-0.936s0.576-0.433,1.008-0.433
		c0.216,0,0.504,0.072,0.72,0.145c0.216,0.144,0.36,0.359,0.504,0.576c0.145,0.216,0.217,0.432,0.217,0.647
		c0,0.432-0.145,0.792-0.433,1.08c-0.288,0.216-0.647,0.36-1.008,0.36c-0.432,0-0.72-0.145-1.008-0.433
		C603.17,350.134,603.025,349.773,603.025,349.342L603.025,349.342z"/>
	<path fill-rule="evenodd" clip-rule="evenodd" d="M603.17,364.966c0.071-1.08,0.071-1.872,0.144-2.376c0-0.504,0-1.008,0-1.44
		c0.072-0.504,0.072-1.079,0.072-1.871v-1.44c-0.072-1.728-0.072-3.456-0.216-5.328c0.432,0.072,0.792,0.145,1.224,0.145
		s0.792-0.072,1.224-0.145c-0.071,1.08-0.144,2.088-0.144,2.88c0,0.864-0.072,1.656-0.072,2.448c0,0.647,0,1.296,0.072,1.8
		c0,0.504,0,1.368,0,2.448s0.072,2.088,0.072,2.88c-0.576-0.072-1.009-0.072-1.225-0.072S603.745,364.894,603.17,364.966
		L603.17,364.966z"/>
	<path fill-rule="evenodd" clip-rule="evenodd" d="M594.674,363.742c0-0.36,0.144-0.721,0.432-1.009
		c0.216-0.287,0.576-0.432,1.008-0.432c0.433,0,0.721,0.145,1.008,0.432c0.288,0.288,0.433,0.648,0.433,1.009
		c0,0.432-0.145,0.72-0.433,1.008c-0.287,0.288-0.647,0.432-1.008,0.432c-0.432,0-0.72-0.144-1.008-0.359
		C594.817,364.534,594.674,364.174,594.674,363.742L594.674,363.742z"/>
	<path fill-rule="evenodd" clip-rule="evenodd" d="M582.577,352.51c0.433,0.072,0.864,0.145,1.368,0.145
		c0.433,0,0.864-0.072,1.296-0.145c0.216,0.648,0.36,1.08,0.504,1.368c0.072,0.36,0.217,0.72,0.36,1.152
		c0.145,0.504,0.288,0.863,0.36,1.08c0.288,0.72,0.504,1.367,0.72,1.943s0.432,1.152,0.648,1.729
		c0.216,0.575,0.575,1.512,1.079,2.735c1.152-2.592,2.017-4.752,2.593-6.407c0.287-0.721,0.504-1.368,0.647-1.801
		c0.145-0.504,0.36-1.08,0.576-1.8c0.288,0.072,0.576,0.145,0.792,0.145c0.288,0,0.576-0.072,0.864-0.145
		c-0.792,1.729-1.296,2.952-1.584,3.601c-0.36,0.936-0.792,1.943-1.296,3.168c-0.721,1.8-1.152,2.88-1.225,3.168l-1.008,2.52
		c-0.36-0.072-0.648-0.072-0.864-0.072c-0.144,0-0.432,0-0.792,0.072c-0.359-1.08-0.647-1.728-0.792-2.088
		c-0.144-0.36-0.288-0.864-0.504-1.44c-0.216-0.575-0.432-1.08-0.576-1.584c-0.216-0.432-0.359-0.72-0.432-0.936
		c-0.432-1.008-0.792-1.944-1.152-2.808C583.369,354.382,582.865,353.229,582.577,352.51L582.577,352.51z"/>
	<path fill-rule="evenodd" clip-rule="evenodd" d="M577.609,363.742c0-0.36,0.145-0.721,0.432-1.009
		c0.217-0.287,0.576-0.432,1.009-0.432c0.432,0,0.72,0.145,1.008,0.432c0.288,0.288,0.432,0.648,0.432,1.009
		c0,0.432-0.144,0.72-0.432,1.008s-0.576,0.432-1.008,0.432c-0.433,0-0.721-0.144-1.009-0.359
		C577.754,364.534,577.609,364.174,577.609,363.742L577.609,363.742z"/>
	<path fill-rule="evenodd" clip-rule="evenodd" d="M565.514,352.51c0.432,0.072,0.864,0.145,1.368,0.145s0.863-0.072,1.296-0.145
		c0.216,0.648,0.359,1.08,0.504,1.368c0.072,0.36,0.216,0.72,0.359,1.152c0.145,0.504,0.288,0.863,0.36,1.08
		c0.288,0.72,0.504,1.367,0.72,1.943c0.217,0.576,0.433,1.152,0.648,1.729c0.216,0.575,0.576,1.512,1.08,2.735
		c1.152-2.592,2.016-4.752,2.592-6.407c0.288-0.721,0.504-1.368,0.648-1.801c0.144-0.504,0.359-1.08,0.575-1.8
		c0.288,0.072,0.576,0.145,0.864,0.145c0.216,0,0.504-0.072,0.792-0.145c-0.792,1.729-1.296,2.952-1.584,3.601
		c-0.359,0.936-0.792,1.943-1.296,3.168c-0.72,1.8-1.152,2.88-1.224,3.168l-1.009,2.52c-0.359-0.072-0.647-0.072-0.863-0.072
		c-0.145,0-0.433,0-0.792,0.072c-0.36-1.08-0.648-1.728-0.792-2.088c-0.145-0.36-0.288-0.864-0.504-1.44
		c-0.217-0.575-0.433-1.08-0.576-1.584c-0.216-0.432-0.36-0.72-0.432-0.936c-0.433-1.008-0.793-1.944-1.152-2.808
		C566.306,354.382,565.802,353.229,565.514,352.51L565.514,352.51z"/>
</g>
</svg>
