<?xml version="1.0" encoding="utf-8"?>
<!-- Generator: Adobe Illustrator 16.0.0, SVG Export Plug-In . SVG Version: 6.00 Build 0)  -->
<!DOCTYPE svg PUBLIC "-//W3C//DTD SVG 1.1//EN" "http://www.w3.org/Graphics/SVG/1.1/DTD/svg11.dtd">
<svg version="1.1" id="Vrstva_1" xmlns="http://www.w3.org/2000/svg" xmlns:xlink="http://www.w3.org/1999/xlink" x="0px" y="0px"
	 width="841.89px" height="595.28px" viewBox="0 0 841.89 595.28" enable-background="new 0 0 841.89 595.28" xml:space="preserve">
<g>
	<path fill-rule="evenodd" clip-rule="evenodd" fill="#9D9D9C" d="M246.424,345.141c-14.328-15.624-11.88-54.864-4.608-73.44
		c10.656-20.448,11.664-22.248,14.473,3.24c2.447,29.304-2.376,26.784,14.832,2.448c10.151-9.504,19.367-20.088,30.096-29.376
		c1.872-3.456,2.664-8.136,7.704-7.704c2.952,2.52-0.36,4.968-2.305,7.056c-18.144,10.584-53.208,44.28-50.976,68.472
		c4.609-2.304,7.848-14.472,12.96-18.576c13.464-17.136,30.168-24.84,45.648-39.312c8.136-3.456,3.6,7.488-5.473,7.488
		c-24.479,15.408-40.248,31.248-53.136,57.096C248.224,325.844,252.76,343.844,246.424,345.141L246.424,345.141z"/>
	<path fill-rule="evenodd" clip-rule="evenodd" fill="#9D9D9C" d="M259.673,326.492c-5.329-4.176,24.12-28.44,28.656-31.752
		c4.68-3.024,32.76-24.408,34.271-16.056c-3.096,5.544-6.12,4.824-11.088,4.824c-19.729,9.864-38.448,23.328-50.328,42.335
		C260.537,326.349,260.537,326.349,259.673,326.492L259.673,326.492z"/>
	<path fill-rule="evenodd" clip-rule="evenodd" fill="#9D9D9C" d="M245.848,352.052c-5.328-4.392,27.72-32.831,31.464-35.495
		c3.601-2.232,26.641-16.488,26.641-8.137c-10.297,25.704-30.24,31.536-53.497,42.192
		C249.017,351.836,247.72,351.98,245.848,352.052L245.848,352.052z"/>
	<path fill-rule="evenodd" clip-rule="evenodd" fill="#9D9D9C" d="M344.992,288.26c0.072-1.152,0.072-2.016,0.145-2.664
		c0-0.576,0.072-1.44,0.072-2.52c0.216-3.96,0.359-8.28,0.359-12.96c0-1.368,0-2.52,0-3.384c-0.071-0.864-0.071-1.8-0.071-2.808
		c0-1.152-0.072-2.232-0.072-3.024c-0.072-0.864-0.145-1.944-0.216-3.312c0-1.296-0.072-2.736-0.145-4.248
		c0.792,0.072,1.584,0.072,2.376,0.072c0.72,0,1.729,0,2.88-0.072c0.937-0.072,2.16-0.072,3.672-0.072
		c3.744,0,6.624,0.648,8.568,2.016s2.952,3.384,2.952,6.048c0,4.248-2.521,7.056-7.56,8.352c2.951,0.288,5.256,1.152,6.768,2.592
		c1.512,1.44,2.231,3.384,2.231,5.904c0,1.944-0.504,3.744-1.512,5.256c-1.008,1.584-2.376,2.808-4.248,3.672
		c-1.8,0.864-3.815,1.296-6.048,1.296c-0.144,0-0.216,0-0.36,0c-0.071,0-0.216,0-0.432,0l-3.6-0.144
		c-1.008-0.072-1.729-0.144-2.305-0.144C347.729,288.116,346.576,288.188,344.992,288.26L344.992,288.26z M350.249,271.196v14.472
		c1.296,0.216,2.376,0.36,3.239,0.36c2.664,0,4.681-0.648,6.12-2.016c1.44-1.368,2.16-3.24,2.16-5.76c0-1.44-0.288-2.808-0.864-3.96
		c-0.647-1.152-1.439-1.944-2.447-2.448c-1.225-0.576-2.809-0.864-4.681-0.864C352.769,270.98,351.545,271.052,350.249,271.196
		L350.249,271.196z M350.249,255.86v12.96c0.359,0,0.72,0,1.08,0.072c0.287,0,0.647,0,0.936,0c2.592,0,4.608-0.576,6.048-1.8
		c1.44-1.224,2.088-2.952,2.088-5.184c0-0.864-0.071-1.656-0.359-2.448c-0.217-0.72-0.576-1.368-1.009-1.944
		c-0.432-0.576-0.863-0.936-1.439-1.224c-1.008-0.504-2.448-0.72-4.248-0.72C352.408,255.572,351.4,255.644,350.249,255.86
		L350.249,255.86z M371.849,271.268c0-2.664,0.432-5.184,1.296-7.416c0.864-2.304,2.16-4.248,3.816-5.904
		c1.655-1.656,3.6-2.952,5.832-3.816c2.304-0.864,4.752-1.296,7.416-1.296s5.111,0.432,7.416,1.296
		c2.304,0.864,4.248,2.16,5.903,3.744c1.656,1.584,2.88,3.528,3.816,5.76c0.864,2.16,1.368,4.608,1.368,7.2
		c0,2.664-0.433,5.04-1.368,7.2c-0.864,2.16-2.16,4.104-3.888,5.688c-1.656,1.584-3.601,2.808-5.904,3.672
		c-2.304,0.864-4.824,1.296-7.561,1.296c-2.592,0-5.04-0.432-7.271-1.224c-2.232-0.864-4.176-2.088-5.832-3.6
		c-1.584-1.584-2.88-3.456-3.744-5.616C372.28,276.164,371.849,273.788,371.849,271.268L371.849,271.268z M389.992,254.996
		c-2.016,0-3.888,0.36-5.472,1.08c-1.584,0.72-2.952,1.728-4.104,3.168c-1.08,1.368-1.944,3.096-2.521,5.112
		c-0.576,2.016-0.864,4.32-0.864,6.84c0,3.24,0.505,6.048,1.513,8.352c1.008,2.376,2.52,4.176,4.464,5.4
		c1.943,1.224,4.248,1.872,6.983,1.872c2.017,0,3.889-0.36,5.545-1.08c1.728-0.72,3.096-1.8,4.247-3.168
		c1.225-1.368,2.089-3.024,2.664-4.968c0.648-1.944,0.937-4.104,0.937-6.624c0-1.728-0.145-3.313-0.36-4.608
		c-0.216-1.368-0.504-2.592-1.008-3.672c-0.432-1.152-1.008-2.16-1.656-3.024c-0.647-0.864-1.512-1.656-2.447-2.232
		c-1.08-0.792-2.305-1.368-3.673-1.8C392.873,255.212,391.433,254.996,389.992,254.996L389.992,254.996z M435.497,253.34
		c-0.145,0.72-0.216,1.368-0.216,1.8c0,0.504,0.071,1.152,0.216,1.944c-2.088-0.288-4.032-0.504-5.832-0.576
		c-1.656-0.144-3.384-0.216-5.185-0.216c-0.071,2.16-0.071,4.176-0.144,6.048c0,1.944,0,2.952,0,2.952s0,0.576,0,1.728
		c0,1.08,0,2.52,0,4.32c0.072,1.8,0.072,3.96,0.144,6.408c0,1.368,0,2.52,0.072,3.456c0,1.008,0.072,2.088,0.072,3.384
		c0.072,1.368,0.072,2.52,0.144,3.672c-1.368-0.072-2.231-0.144-2.664-0.144c-0.504,0-1.368,0.072-2.664,0.144
		c0-2.304,0.072-4.032,0.145-5.256c0-2.232,0.071-4.176,0.071-5.76c0.072-1.656,0.072-3.456,0.145-5.4c0-1.944,0-3.456,0-4.536
		c0-0.576,0-1.944,0-4.104c-0.072-2.088-0.072-4.392-0.145-6.912c-1.8,0-3.527,0.072-5.184,0.216
		c-1.944,0.144-3.816,0.288-5.76,0.576c0-0.36,0.071-0.72,0.071-1.08c0.072-0.432,0.072-0.72,0.072-0.864c0-0.072,0-0.72-0.144-1.8
		c5.472,0.144,9.936,0.216,13.392,0.216S430.024,253.484,435.497,253.34L435.497,253.34z M430.024,288.26
		c0.721-1.368,1.513-2.736,2.16-4.032c0.433-0.864,0.864-1.728,1.225-2.52c0.359-0.792,1.08-2.304,2.088-4.464
		c0.936-2.16,1.943-4.248,2.88-6.336c1.944-4.104,3.384-7.416,4.464-9.792s1.872-4.248,2.521-5.688l0.863-2.088
		c0.792,0.144,1.44,0.216,1.944,0.216c0.432,0,1.08-0.072,1.8-0.216l0.576,2.016c1.584,5.04,3.312,10.224,5.256,15.479
		c1.584,4.464,3.24,8.712,4.896,12.6c0.72,1.584,1.439,3.24,2.231,4.824c-1.008-0.072-2.016-0.072-3.168-0.072
		c-1.08,0-2.16,0-3.24,0.072c-0.288-1.008-0.575-2.016-0.863-2.88c-0.288-0.936-0.576-1.872-0.864-2.808
		c-0.648-1.872-1.44-4.248-2.448-6.984c-1.944-0.072-4.032-0.072-6.191-0.072c-2.521,0-4.824,0-6.984,0.072
		c-1.296,2.808-2.304,5.256-3.168,7.416c-0.216,0.504-0.432,1.08-0.648,1.656c-0.216,0.576-0.504,1.152-0.72,1.872
		c-0.288,0.72-0.504,1.296-0.648,1.728c-0.647-0.072-1.296-0.072-2.016-0.072C431.321,288.188,430.673,288.188,430.024,288.26
		L430.024,288.26z M446.513,259.1l-6.264,13.824c1.8,0.072,3.744,0.072,5.76,0.072c1.872,0,3.744,0,5.544-0.072L446.513,259.1
		L446.513,259.1z M465.809,253.34c0.504,0.072,1.008,0.072,1.513,0.072c0.575,0,1.079,0,1.512-0.072
		c3.24,4.176,6.048,7.776,8.496,10.656c0.936,1.152,1.872,2.304,2.88,3.528c0.936,1.152,1.8,2.232,2.664,3.24
		c0.864,0.936,1.943,2.232,3.24,3.744c0.647,0.72,1.151,1.296,1.512,1.728c0.359,0.432,0.936,1.152,1.728,2.016
		c0.792,0.864,1.513,1.728,2.232,2.448l0.072-3.24c0.071-1.152,0.071-3.6,0.071-7.416v-6.048c0-0.648,0-1.368-0.071-2.304
		c0-0.864-0.072-1.728-0.072-2.592c0-0.864-0.072-1.8-0.072-2.664c0-0.864-0.072-1.944-0.072-3.096
		c0.505,0.072,1.009,0.072,1.584,0.072c0.505,0,1.009,0,1.44-0.072c-0.072,2.52-0.144,4.392-0.144,5.688
		c-0.072,1.656-0.145,3.528-0.145,5.616c-0.072,2.088-0.072,3.816-0.072,5.256c0,2.016,0,3.816,0.072,5.328c0,1.584,0,2.952,0,4.176
		c0.072,1.224,0.072,2.304,0.072,3.312l0.144,5.544c-0.576-0.072-1.08-0.072-1.655-0.072c-0.505,0-1.009,0-1.513,0.072
		c-2.304-2.88-3.888-4.824-4.68-5.832s-1.584-1.944-2.304-2.808c-0.648-0.864-1.729-2.088-3.097-3.744
		c-0.575-0.72-1.439-1.728-2.664-3.168c-1.151-1.368-2.016-2.448-2.592-3.096s-1.368-1.584-2.304-2.736
		c-1.008-1.152-1.872-2.16-2.664-3.024l-2.088-2.304v2.016v2.592v4.68v5.184c0,1.224,0,3.24,0.072,5.976
		c0.071,2.808,0.071,4.896,0.144,6.264c-0.504-0.072-1.008-0.072-1.512-0.072c-0.576,0-1.08,0-1.513,0.072
		c0.072-2.016,0.145-3.384,0.145-3.96c0-0.648,0.072-1.224,0.072-1.872c0-0.72,0-2.016,0.071-3.672
		c0.072-1.656,0.145-3.168,0.145-4.536s0-2.448,0-3.312c0-2.592,0-4.896-0.145-6.912C466.241,261.26,466.097,257.66,465.809,253.34
		L465.809,253.34z M504.185,253.412c1.152,0.072,2.088,0.216,2.809,0.216c0.72-0.072,1.728-0.144,2.952-0.216
		c-0.072,1.152-0.217,2.88-0.288,5.04c-0.145,4.608-0.217,9-0.217,13.176c0,1.008,0,2.016,0,3.096c0,1.008,0,2.016,0,3.024
		c0.072,3.096,0.288,6.624,0.576,10.512c-1.296-0.072-2.304-0.144-2.808-0.144c-0.576,0-1.584,0.072-2.952,0.144
		c0.144-2.376,0.216-4.104,0.288-5.184c0.144-5.544,0.288-9.576,0.288-12.096c0-2.521-0.072-4.896-0.145-7.056
		c-0.071-1.728-0.144-3.24-0.216-4.68S504.329,255.86,504.185,253.412L504.185,253.412z M546.017,255.932
		c-0.359,1.368-0.575,2.736-0.72,4.176l-0.504,0.144c-2.521-3.456-5.904-5.184-10.008-5.184c-2.664,0-4.969,0.648-6.984,1.944
		c-1.944,1.368-3.456,3.168-4.464,5.616c-1.08,2.448-1.584,5.328-1.584,8.64c0,2.232,0.288,4.32,0.936,6.192
		c0.576,1.872,1.513,3.528,2.664,4.896c1.225,1.368,2.593,2.448,4.177,3.168c1.655,0.72,3.455,1.08,5.399,1.08
		c1.872,0,3.672-0.432,5.4-1.224c1.655-0.792,3.384-2.016,5.184-3.744l0.36,0.216c-0.288,1.152-0.432,1.872-0.504,2.16
		c-0.145,1.152-0.288,1.944-0.288,2.232c-0.433,0.144-0.792,0.36-1.152,0.504c-0.288,0.144-0.576,0.288-0.864,0.432
		c-2.52,1.008-5.256,1.584-8.208,1.584c-2.663,0-5.111-0.432-7.344-1.296c-2.231-0.864-4.176-2.088-5.903-3.744
		c-1.656-1.584-2.952-3.528-3.816-5.688s-1.296-4.536-1.296-7.128c0-3.096,0.647-6.048,2.088-8.856
		c3.168-6.12,8.64-9.216,16.488-9.216c2.159,0,4.248,0.36,6.191,1.008c0.864,0.216,1.584,0.432,2.16,0.72
		C544.073,254.852,544.937,255.284,546.017,255.932L546.017,255.932z M548.969,288.26c0.072-1.224,0.072-2.088,0.145-2.52
		c0-0.504,0-1.44,0.071-2.88c0.216-3.384,0.36-7.128,0.36-11.304c0-3.384-0.072-5.976-0.145-7.704
		c-0.071-2.376-0.216-5.904-0.432-10.512c1.152,0.144,2.088,0.216,2.88,0.216c0.72,0,1.656-0.072,2.809-0.216
		c-0.216,2.88-0.288,4.68-0.288,5.328c-0.072,2.521-0.145,5.256-0.145,8.208v3.024c2.952-2.952,5.112-5.256,6.553-6.768
		c1.439-1.584,3.023-3.6,4.896-5.976c1.08-1.44,2.016-2.736,2.808-3.816c1.009,0.072,1.801,0.144,2.376,0.144
		c0.433,0,1.225-0.072,2.232-0.144c-1.296,1.224-2.592,2.52-3.96,3.888c-2.016,2.088-3.672,3.816-4.896,5.256
		c-1.296,1.44-3.168,3.672-5.688,6.552c0.504,0.648,1.368,1.8,2.736,3.384c1.296,1.656,2.304,2.952,3.023,3.816
		c0.72,0.936,1.44,1.728,2.088,2.448c0.576,0.72,1.44,1.728,2.521,3.024c1.8,2.088,3.744,4.248,5.832,6.552
		c-1.872-0.072-3.097-0.144-3.816-0.144c-0.647,0-1.944,0.072-3.672,0.144c-1.224-1.728-2.232-3.24-3.168-4.536
		c-1.44-2.016-2.808-3.816-4.176-5.472c-1.368-1.656-3.313-3.744-5.688-6.336v3.24v2.52c0,1.944,0.072,3.312,0.072,4.248
		c0.072,0.864,0.145,3.024,0.216,6.336c-1.224-0.072-2.16-0.144-2.735-0.144C551.201,288.116,550.265,288.188,548.969,288.26
		L548.969,288.26z M571.145,253.412c1.368,0.072,2.448,0.216,3.313,0.216c0.936-0.072,2.016-0.144,3.312-0.216
		c1.872,3.744,3.673,7.272,5.4,10.512c0.576,0.936,1.152,1.872,1.728,2.88c0.576,1.08,1.368,2.376,2.376,4.032
		c0.36-0.72,0.721-1.368,1.08-1.944c0.288-0.576,0.576-1.08,0.864-1.584c0.216-0.504,0.504-1.008,0.864-1.512
		c0.288-0.576,0.576-1.152,0.864-1.656c2.159-4.176,3.888-7.776,5.256-10.728c0.647,0.072,1.296,0.072,2.016,0.072
		s1.44-0.072,2.16-0.144c-0.936,1.512-1.584,2.592-2.016,3.24c-0.433,0.648-0.864,1.44-1.368,2.304
		c-0.576,0.792-1.152,1.728-1.8,2.808c-0.576,1.08-1.009,1.8-1.225,2.16c-0.647,1.08-2.448,4.248-5.4,9.504v2.16v2.232
		c0.072,3.384,0.217,6.912,0.433,10.512c-1.368-0.072-2.304-0.144-2.808-0.144c-0.576,0-1.513,0.072-2.881,0.144
		c0.145-2.16,0.217-4.032,0.288-5.472c0.072-1.44,0.145-3.096,0.145-5.04c0.071-0.504,0.071-1.152,0.071-2.016v-1.368
		c-1.079-1.944-2.159-3.888-3.312-5.832c-1.08-1.944-2.016-3.528-2.736-4.68c-1.08-1.872-2.159-3.672-3.312-5.472
		C573.232,256.58,572.152,254.924,571.145,253.412L571.145,253.412z M583.097,249.596c1.44-1.656,2.376-2.808,2.88-3.456
		c0.721-0.936,1.584-2.16,2.592-3.528c0.937,0.072,1.873,0.072,2.952,0.072c1.009,0,1.944,0,2.88-0.072
		c-2.231,1.368-4.031,2.592-5.327,3.672c-1.225,1.008-2.521,2.16-3.744,3.384c-0.792-0.072-1.152-0.072-1.152-0.072
		C583.816,249.596,583.457,249.596,583.097,249.596L583.097,249.596z"/>
	<path fill-rule="evenodd" clip-rule="evenodd" fill="#9D9D9C" d="M345.064,300.356c1.152,0.071,2.088,0.144,2.809,0.144
		c0.72,0,1.655-0.072,2.808-0.144c-0.288,4.464-0.504,7.992-0.504,10.512v2.448v5.111c0,3.961,0.144,6.553,0.288,7.561
		c0.432,2.088,1.512,3.816,3.384,5.184c1.872,1.296,4.104,1.944,6.696,1.944c1.584,0,3.023-0.288,4.392-0.792
		c1.368-0.576,2.521-1.368,3.528-2.376s1.8-2.232,2.304-3.672c0.36-0.864,0.576-2.017,0.72-3.456c0.145-1.44,0.217-3.096,0.217-5.04
		v-4.536v-1.584v-0.864c0-3.096-0.072-6.552-0.217-10.439c0.433,0.071,0.937,0.071,1.44,0.071s1.008,0,1.512-0.071
		c0,1.151-0.072,2.735-0.144,4.68c-0.072,1.944-0.072,3.888-0.145,5.832v1.729v0.647v3.888v0.433c0,2.592,0,4.176,0,4.752
		c-0.071,1.872-0.504,3.672-1.224,5.328c-0.792,1.728-1.8,3.096-3.096,4.319c-1.296,1.225-2.881,2.088-4.608,2.809
		c-1.728,0.647-3.6,0.936-5.616,0.936c-1.872,0-3.672-0.288-5.399-0.864c-1.656-0.575-3.24-1.439-4.608-2.592
		c-1.368-1.08-2.448-2.304-3.168-3.744c-0.792-1.439-1.152-2.88-1.152-4.392l0.145-6.84v-3.96v-2.448
		C345.425,308.708,345.28,305.18,345.064,300.356L345.064,300.356z M357.16,296.612c1.368-1.656,2.305-2.808,2.809-3.456
		c0.72-1.008,1.584-2.16,2.664-3.6c0.864,0.072,1.872,0.144,2.88,0.144s2.016-0.072,2.88-0.144c-1.224,0.792-2.232,1.44-3.024,2.016
		s-1.584,1.152-2.231,1.656c-1.44,1.224-2.664,2.304-3.744,3.456c-0.792-0.072-1.152-0.144-1.224-0.144
		C357.809,296.54,357.448,296.54,357.16,296.612L357.16,296.612z M377.681,333.404c0.36-0.792,0.576-1.44,0.648-2.016
		c0.144-0.36,0.287-1.08,0.575-2.16l0.288-0.217c0.648,1.009,1.296,1.801,2.017,2.448c0.72,0.72,1.512,1.225,2.376,1.513
		c0.863,0.359,1.8,0.504,2.808,0.504c1.296,0,2.448-0.288,3.6-0.937c1.08-0.576,1.944-1.368,2.593-2.448
		c0.576-1.008,0.863-2.159,0.863-3.384c0-1.512-0.287-2.735-0.936-3.744c-0.648-0.936-1.656-1.728-3.168-2.447l-4.824-2.089
		c-2.016-0.936-3.528-2.159-4.536-3.672c-1.08-1.512-1.584-3.239-1.584-5.184c0-1.8,0.504-3.456,1.513-4.968
		c0.936-1.513,2.304-2.736,4.104-3.528c1.729-0.864,3.744-1.296,5.976-1.296c2.809,0,5.4,0.72,7.633,2.16
		c-0.433,0.936-0.721,1.439-0.792,1.656c-0.288,0.575-0.504,1.296-0.792,2.088l-0.504,0.071c-0.288-0.576-0.648-1.08-1.009-1.512
		c-0.647-0.72-1.439-1.224-2.376-1.584c-0.936-0.432-1.943-0.576-2.88-0.576c-1.224,0-2.304,0.216-3.24,0.721
		c-1.008,0.575-1.728,1.296-2.231,2.159c-0.576,0.937-0.864,1.944-0.864,3.097c0,2.52,1.44,4.464,4.32,5.76l4.176,2.016
		c2.448,1.08,4.176,2.376,5.184,3.744c1.08,1.368,1.584,3.096,1.584,5.112c0,2.016-0.504,3.888-1.584,5.616
		c-1.079,1.655-2.52,2.951-4.392,3.96c-1.872,0.936-3.96,1.439-6.192,1.439C382.937,335.708,380.2,334.916,377.681,333.404
		L377.681,333.404z M426.929,300.356c-0.144,0.72-0.216,1.296-0.216,1.8c0,0.432,0.072,1.08,0.216,1.944
		c-2.088-0.288-4.032-0.504-5.832-0.648c-1.656-0.072-3.384-0.144-5.184-0.144c-0.072,2.088-0.072,4.104-0.145,6.048
		c0,1.943,0,2.88,0,2.952c0,0,0,0.575,0,1.728c0,1.08,0,2.521,0,4.32c0.072,1.8,0.072,3.96,0.145,6.408c0,1.296,0,2.52,0.071,3.456
		c0,0.936,0.072,2.088,0.072,3.384c0.072,1.296,0.072,2.52,0.144,3.672c-1.367-0.072-2.231-0.145-2.663-0.145
		c-0.505,0-1.368,0.072-2.736,0.145c0.072-2.304,0.144-4.104,0.216-5.256c0-2.232,0.072-4.177,0.072-5.832
		c0.072-1.584,0.072-3.384,0.144-5.328c0-2.017,0-3.528,0-4.536c0-0.648,0-2.016,0-4.104c-0.071-2.089-0.071-4.393-0.144-6.912
		c-1.8,0-3.528,0.071-5.185,0.144c-1.943,0.145-3.815,0.36-5.76,0.648c0-0.36,0.072-0.721,0.072-1.08
		c0.072-0.433,0.072-0.721,0.072-0.864c0-0.145,0-0.72-0.145-1.8c5.472,0.071,9.937,0.144,13.393,0.144
		C416.992,300.5,421.457,300.428,426.929,300.356L426.929,300.356z M424.337,335.276c0.792-1.368,1.512-2.736,2.16-4.104
		c0.432-0.863,0.864-1.655,1.224-2.447c0.433-0.864,1.08-2.305,2.088-4.465c1.008-2.159,1.944-4.248,2.952-6.336
		c1.872-4.176,3.384-7.416,4.464-9.792c1.008-2.447,1.872-4.319,2.448-5.688l0.864-2.088c0.792,0.071,1.439,0.144,1.943,0.144
		s1.08-0.072,1.872-0.144l0.576,2.016c1.512,5.04,3.24,10.225,5.185,15.48c1.584,4.464,3.239,8.64,4.968,12.6
		c0.647,1.584,1.439,3.168,2.231,4.824c-1.008-0.072-2.088-0.072-3.239-0.072c-1.08,0-2.16,0-3.168,0.072
		c-0.288-1.08-0.576-2.017-0.864-2.952c-0.36-0.864-0.648-1.8-0.864-2.736c-0.647-1.943-1.439-4.248-2.448-6.983
		c-2.016-0.072-4.104-0.072-6.264-0.072c-2.52,0-4.824,0-6.912,0.072c-1.296,2.735-2.376,5.256-3.168,7.416
		c-0.288,0.504-0.504,1.08-0.72,1.655c-0.216,0.504-0.433,1.152-0.72,1.872c-0.288,0.721-0.433,1.296-0.648,1.729
		c-0.576-0.072-1.224-0.072-1.944-0.072C425.633,335.204,424.984,335.204,424.337,335.276L424.337,335.276z M440.825,306.116
		l-6.192,13.824c1.8,0.071,3.672,0.071,5.688,0.071c1.872,0,3.743,0,5.544-0.071L440.825,306.116L440.825,306.116z M453.856,300.356
		c1.368,0.071,2.448,0.144,3.168,0.144c0.721,0,1.801-0.072,3.313-0.144c1.296,4.104,2.448,7.632,3.528,10.584
		c1.224,3.168,2.231,5.976,3.239,8.424c1.009,2.376,2.305,5.4,3.889,9c1.008-2.376,1.8-4.248,2.376-5.544s1.08-2.521,1.584-3.816
		c0.504-1.224,1.08-2.664,1.728-4.392c0.648-1.729,1.08-2.952,1.296-3.672c0.433-1.008,0.792-2.16,1.225-3.313
		c0.432-1.151,1.224-3.6,2.447-7.344c0.576,0.072,1.225,0.144,1.944,0.144c0.648,0,1.224,0,1.872-0.071
		c-0.504,0.936-0.936,1.943-1.44,3.023c-0.432,1.009-0.863,1.944-1.224,2.736s-0.72,1.656-1.152,2.592
		c-0.432,0.937-0.72,1.656-1.008,2.232c-0.792,1.943-2.376,5.903-4.824,12.023c-0.575,1.656-1.008,2.88-1.296,3.528
		c-0.216,0.648-0.504,1.368-0.792,2.088s-0.647,1.729-1.08,3.024c-0.432,1.224-0.936,2.447-1.367,3.672
		c-0.504-0.072-1.08-0.072-1.656-0.072c-0.648,0-1.225,0-1.729,0.072c-0.936-2.664-1.655-4.752-2.231-6.336s-1.296-3.601-2.16-5.977
		c-1.872-4.896-3.528-8.928-4.896-12.023C457.457,308.132,455.873,304.604,453.856,300.356L453.856,300.356z M495.257,335.276
		c0.648-1.152,1.224-2.232,1.8-3.384c0.36-0.648,0.721-1.368,1.008-2.017c0.288-0.647,0.864-1.872,1.729-3.6
		c0.792-1.8,1.584-3.528,2.376-5.256c1.512-3.384,2.736-6.048,3.672-7.992c0.864-1.944,1.512-3.528,2.016-4.68l0.721-1.729
		c0.647,0.145,1.151,0.216,1.584,0.216c0.359,0,0.863-0.071,1.512-0.216l0.432,1.729c1.296,4.104,2.736,8.352,4.248,12.672
		c1.368,3.6,2.736,7.056,4.104,10.296c0.576,1.296,1.152,2.592,1.8,3.96c-0.792-0.072-1.656-0.072-2.592-0.072
		c-0.937,0-1.8,0-2.664,0.072c-0.216-0.864-0.433-1.656-0.72-2.376c-0.217-0.792-0.433-1.512-0.721-2.304
		c-0.504-1.585-1.151-3.456-1.943-5.688c-1.656-0.072-3.385-0.072-5.112-0.072c-2.088,0-3.96,0-5.688,0.072
		c-1.079,2.232-1.943,4.248-2.592,6.048c-0.216,0.433-0.432,0.864-0.576,1.368c-0.216,0.432-0.359,0.936-0.575,1.512
		c-0.217,0.576-0.433,1.08-0.504,1.44c-0.505-0.072-1.08-0.072-1.656-0.072S495.833,335.204,495.257,335.276L495.257,335.276z
		 M508.793,311.372l-5.112,11.304c1.513,0.072,3.024,0.072,4.681,0.072c1.584,0,3.096,0,4.535-0.072L508.793,311.372
		L508.793,311.372z M519.449,306.62c1.151,0.145,2.016,0.145,2.592,0.145s1.512,0,2.736-0.145c1.008,3.456,2.016,6.336,2.88,8.712
		c0.936,2.592,1.872,4.896,2.664,6.912c0.792,1.944,1.872,4.393,3.168,7.344c0.863-1.943,1.512-3.456,1.943-4.536
		c0.433-1.008,0.864-2.088,1.296-3.096c0.433-1.008,0.864-2.231,1.368-3.6c0.576-1.44,0.937-2.448,1.152-3.024
		c0.288-0.864,0.647-1.728,0.936-2.735c0.36-0.937,1.009-2.952,2.017-5.977c0.504,0.072,1.008,0.145,1.584,0.145
		s1.08-0.072,1.584-0.145c-0.433,0.864-0.792,1.656-1.152,2.521c-0.432,0.863-0.72,1.584-1.008,2.231
		c-0.36,0.648-0.648,1.368-1.008,2.16c-0.288,0.72-0.576,1.368-0.792,1.8c-0.648,1.584-2.017,4.896-3.96,9.864
		c-0.504,1.368-0.864,2.304-1.08,2.88c-0.145,0.504-0.36,1.08-0.648,1.729c-0.216,0.575-0.504,1.367-0.864,2.447
		c-0.359,1.008-0.72,2.017-1.151,3.024c-0.36-0.072-0.864-0.072-1.368-0.072s-0.937,0-1.368,0.072
		c-0.792-2.16-1.368-3.888-1.872-5.185c-0.432-1.296-1.008-2.951-1.728-4.896c-1.584-4.032-2.88-7.272-4.032-9.864
		C522.4,313.028,521.104,310.148,519.449,306.62L519.449,306.62z M579.568,308.78c-0.287,1.08-0.504,2.231-0.647,3.384l-0.36,0.145
		c-2.088-2.809-4.823-4.248-8.279-4.248c-2.16,0-4.032,0.576-5.616,1.655c-1.656,1.009-2.88,2.593-3.744,4.536
		c-0.864,2.017-1.296,4.393-1.296,7.057c0,1.871,0.288,3.527,0.792,5.111c0.504,1.513,1.224,2.88,2.231,4.032
		c0.937,1.08,2.089,1.944,3.385,2.521c1.296,0.575,2.808,0.863,4.464,0.863c1.512,0,2.952-0.288,4.319-0.936
		c1.44-0.648,2.881-1.656,4.32-3.024l0.288,0.145c-0.216,0.936-0.36,1.512-0.432,1.728c-0.145,1.008-0.216,1.584-0.216,1.872
		c-0.36,0.145-0.648,0.288-0.937,0.36c-0.288,0.144-0.504,0.288-0.72,0.359c-2.017,0.864-4.32,1.297-6.769,1.297
		c-2.159,0-4.176-0.36-5.976-1.009c-1.872-0.72-3.456-1.728-4.824-3.096c-1.368-1.296-2.448-2.88-3.168-4.68
		c-0.72-1.729-1.08-3.673-1.08-5.832c0-2.521,0.576-4.969,1.8-7.272c2.521-4.968,7.057-7.488,13.464-7.488
		c1.729,0,3.456,0.288,5.112,0.792c0.648,0.145,1.225,0.36,1.729,0.576C577.984,307.916,578.633,308.276,579.568,308.78
		L579.568,308.78z M562.648,298.845c0.504-0.072,0.937-0.216,1.297-0.433c0.359-0.144,0.792-0.36,1.224-0.648
		c0.864,0.865,1.656,1.728,2.376,2.448c0.504,0.36,0.792,0.576,0.864,0.648c0.144,0.072,0.359,0.288,0.575,0.432
		c0.217,0.216,0.576,0.433,0.937,0.72c0.647-0.647,1.152-1.224,1.512-1.728c0.576-0.864,1.08-1.655,1.44-2.52
		c0.864,0.432,1.728,0.72,2.664,0.792c-1.008,0.936-1.872,1.871-2.521,2.664c-0.504,0.647-1.008,1.439-1.584,2.376h-2.735
		c-1.009-1.009-1.944-1.872-2.881-2.593C564.665,300.141,563.657,299.42,562.648,298.845L562.648,298.845z M582.737,335.276
		c0.071-1.008,0.071-1.729,0.071-2.232c0.072-0.432,0.072-1.151,0.145-2.16c0.144-3.023,0.216-6.479,0.216-10.151
		c0-1.152,0-2.952-0.072-5.4c-0.072-3.96-0.216-6.84-0.288-8.64c0.937,0.072,1.584,0.144,2.088,0.144
		c0.792,0,1.872-0.071,3.24-0.216c0.937-0.072,1.8-0.072,2.736-0.072c1.872,0,3.527,0.288,4.896,0.792
		c1.296,0.576,2.376,1.368,3.097,2.448c0.72,1.08,1.08,2.376,1.08,3.816c0,1.368-0.36,2.735-1.225,3.96
		c-0.792,1.296-1.8,2.231-3.096,2.735c-0.648,0.288-1.296,0.505-1.872,0.576c-0.648,0.145-1.368,0.216-2.088,0.288
		c0.072,0.145,0.144,0.216,0.216,0.288c0.072,0.145,0.144,0.216,0.216,0.36c0.072,0.071,0.145,0.144,0.145,0.216
		c0.071,0.072,0.144,0.216,0.216,0.288c0.576,0.72,1.152,1.439,1.656,2.16c0.575,0.72,1.296,1.584,2.159,2.735
		c1.152,1.296,3.528,3.96,7.2,8.064c-1.368-0.072-2.304-0.145-2.808-0.145c-0.648,0-1.656,0.072-3.097,0.145
		c-1.079-1.656-2.016-3.097-2.88-4.248c-0.863-1.152-1.728-2.376-2.735-3.672c-1.656-2.088-3.313-4.032-4.896-5.832
		c0,0.359,0,0.792,0,1.368c0,0.575-0.072,0.936-0.072,1.224c0,0.216,0,0.504,0,0.792v1.729c0.072,2.735,0.145,5.615,0.288,8.64
		c-1.079-0.072-1.872-0.145-2.304-0.145S583.816,335.204,582.737,335.276L582.737,335.276z M587.057,308.78l-0.072,11.16
		c0.505,0.071,1.152,0.144,1.872,0.144c2.232,0,3.96-0.576,5.185-1.584c1.152-1.008,1.8-2.448,1.8-4.392
		c0-1.152-0.288-2.16-0.72-3.024c-0.504-0.936-1.08-1.512-1.872-1.872c-0.864-0.432-2.017-0.647-3.384-0.647
		C588.929,308.564,587.993,308.637,587.057,308.78L587.057,308.78z"/>
	<path fill-rule="evenodd" clip-rule="evenodd" fill="#9D9D9C" d="M602.753,355.22c0-0.432,0.144-0.792,0.432-1.079
		c0.288-0.288,0.648-0.433,1.08-0.433c0.36,0,0.72,0.145,1.008,0.433c0.288,0.287,0.433,0.647,0.433,1.008
		c0,0.432-0.145,0.792-0.433,1.08s-0.647,0.432-1.008,0.432c-0.432,0-0.792-0.144-1.08-0.432S602.753,355.58,602.753,355.22
		L602.753,355.22z"/>
	<path fill-rule="evenodd" clip-rule="evenodd" fill="#9D9D9C" d="M597.713,340.82c0-0.432,0.144-0.72,0.432-1.008
		s0.576-0.433,0.937-0.433c0.288,0,0.504,0.072,0.72,0.217c0.216,0.071,0.432,0.287,0.504,0.504c0.145,0.216,0.216,0.432,0.216,0.72
		c0,0.359-0.144,0.72-0.432,1.008c-0.288,0.216-0.576,0.36-1.008,0.36c-0.36,0-0.648-0.145-0.937-0.36
		C597.856,341.54,597.713,341.18,597.713,340.82L597.713,340.82z"/>
	<path fill-rule="evenodd" clip-rule="evenodd" fill="#9D9D9C" d="M597.856,356.372c0.072-1.08,0.145-1.8,0.145-2.304
		c0.072-0.576,0.072-1.008,0.072-1.512c0-0.505,0-1.08,0-1.872v-1.44c0-1.728-0.072-3.456-0.145-5.328
		c0.36,0.072,0.792,0.145,1.152,0.145c0.432,0,0.864-0.072,1.224-0.145c-0.072,1.08-0.072,2.088-0.144,2.88c0,0.864,0,1.656,0,2.448
		c0,0.648,0,1.296,0,1.8s0.071,1.368,0.071,2.448c0,1.152,0,2.088,0.072,2.88c-0.576-0.072-1.008-0.072-1.224-0.072
		S598.433,356.3,597.856,356.372L597.856,356.372z"/>
	<path fill-rule="evenodd" clip-rule="evenodd" fill="#9D9D9C" d="M588.209,355.22c0-0.432,0.144-0.792,0.432-1.079
		c0.288-0.288,0.648-0.433,1.08-0.433c0.36,0,0.721,0.145,1.008,0.433c0.288,0.287,0.433,0.647,0.433,1.008
		c0,0.432-0.145,0.792-0.433,1.08c-0.287,0.288-0.647,0.432-1.008,0.432c-0.432,0-0.792-0.144-1.08-0.432
		S588.209,355.58,588.209,355.22L588.209,355.22z"/>
	<path fill-rule="evenodd" clip-rule="evenodd" fill="#9D9D9C" d="M578.633,343.916c0.432,0.072,0.864,0.145,1.368,0.145
		c0.432,0,0.864-0.072,1.296-0.145c0.145,0.648,0.36,1.08,0.432,1.368c0.145,0.36,0.217,0.72,0.433,1.152
		c0.144,0.504,0.288,0.863,0.359,1.08c0.288,0.72,0.504,1.367,0.721,1.943c0.216,0.576,0.432,1.152,0.647,1.729
		s0.576,1.512,1.08,2.735c1.08-2.592,1.944-4.752,2.521-6.407c0.288-0.721,0.575-1.368,0.72-1.801
		c0.144-0.432,0.359-1.079,0.576-1.8c0.216,0.072,0.504,0.145,0.792,0.145s0.575-0.072,0.792-0.145
		c-0.792,1.729-1.296,2.952-1.513,3.601c-0.432,0.936-0.863,1.943-1.296,3.168c-0.72,1.8-1.151,2.88-1.296,3.239l-0.936,2.448
		c-0.433-0.072-0.72-0.072-0.864-0.072c-0.144,0-0.432,0-0.792,0.072c-0.432-1.08-0.648-1.728-0.792-2.088s-0.36-0.864-0.576-1.44
		c-0.216-0.575-0.359-1.079-0.576-1.584c-0.144-0.432-0.287-0.72-0.359-0.936c-0.433-1.008-0.864-1.944-1.225-2.808
		C579.425,345.788,578.921,344.637,578.633,343.916L578.633,343.916z"/>
	<path fill-rule="evenodd" clip-rule="evenodd" fill="#9D9D9C" d="M570.137,355.22c0-0.432,0.145-0.792,0.432-1.079
		c0.288-0.288,0.648-0.433,1.08-0.433c0.36,0,0.721,0.145,1.009,0.433c0.288,0.287,0.432,0.647,0.432,1.008
		c0,0.432-0.144,0.792-0.432,1.08s-0.648,0.432-1.009,0.432c-0.432,0-0.792-0.144-1.08-0.432
		C570.281,355.94,570.137,355.58,570.137,355.22L570.137,355.22z"/>
	<path fill-rule="evenodd" clip-rule="evenodd" fill="#9D9D9C" d="M560.705,343.916c0.432,0.072,0.863,0.145,1.368,0.145
		c0.432,0,0.863-0.072,1.296-0.145c0.216,0.648,0.359,1.08,0.432,1.368c0.145,0.36,0.288,0.72,0.432,1.152
		c0.145,0.504,0.288,0.863,0.36,1.08c0.288,0.72,0.504,1.367,0.72,1.943c0.217,0.576,0.433,1.152,0.648,1.729
		s0.576,1.512,1.08,2.735c1.08-2.592,1.943-4.752,2.52-6.407c0.288-0.721,0.576-1.368,0.721-1.801
		c0.144-0.432,0.359-1.079,0.575-1.8c0.217,0.072,0.505,0.145,0.792,0.145c0.288,0,0.576-0.072,0.793-0.145
		c-0.721,1.729-1.297,2.952-1.513,3.601c-0.432,0.936-0.864,1.943-1.296,3.168c-0.72,1.8-1.152,2.88-1.296,3.239l-0.937,2.448
		c-0.432-0.072-0.72-0.072-0.863-0.072c-0.145,0-0.433,0-0.792,0.072c-0.433-1.08-0.648-1.728-0.792-2.088
		c-0.145-0.36-0.36-0.864-0.576-1.44c-0.216-0.575-0.36-1.079-0.576-1.584c-0.144-0.432-0.288-0.72-0.359-0.936
		c-0.433-1.008-0.864-1.944-1.225-2.808C561.497,345.788,560.993,344.637,560.705,343.916L560.705,343.916z"/>
</g>
</svg>
