<?xml version="1.0" encoding="utf-8"?>
<!-- Generator: Adobe Illustrator 16.0.0, SVG Export Plug-In . SVG Version: 6.00 Build 0)  -->
<!DOCTYPE svg PUBLIC "-//W3C//DTD SVG 1.1//EN" "http://www.w3.org/Graphics/SVG/1.1/DTD/svg11.dtd">
<svg version="1.1" id="Vrstva_1" xmlns="http://www.w3.org/2000/svg" xmlns:xlink="http://www.w3.org/1999/xlink" x="0px" y="0px"
	 width="841.89px" height="595.28px" viewBox="0 0 841.89 595.28" enable-background="new 0 0 841.89 595.28" xml:space="preserve">
<g>
	<path fill-rule="evenodd" clip-rule="evenodd" fill="#85A315" d="M246.425,345.141c-14.328-15.624-11.88-54.864-4.608-73.44
		c10.656-20.448,11.664-22.248,14.472,3.24c2.448,29.304-2.376,26.784,14.832,2.448c10.152-9.504,19.368-20.088,30.096-29.376
		c1.872-3.456,2.664-8.136,7.704-7.704c2.952,2.52-0.36,4.968-2.304,7.056c-18.144,10.584-53.208,44.28-50.976,68.472
		c4.608-2.304,7.848-14.472,12.96-18.576c13.464-17.136,30.168-24.84,45.648-39.312c8.136-3.456,3.6,7.488-5.472,7.488
		c-24.48,15.408-40.248,31.248-53.136,57.096C248.225,325.844,252.761,343.844,246.425,345.141L246.425,345.141z"/>
	<path fill-rule="evenodd" clip-rule="evenodd" fill="#85A315" d="M259.673,326.492c-5.328-4.176,24.12-28.44,28.656-31.752
		c4.68-3.024,32.76-24.408,34.272-16.056c-3.096,5.544-6.12,4.824-11.088,4.824c-19.728,9.864-38.448,23.328-50.328,42.335
		C260.537,326.349,260.537,326.349,259.673,326.492L259.673,326.492z"/>
	<path fill-rule="evenodd" clip-rule="evenodd" fill="#85A315" d="M245.849,352.052c-5.328-4.392,27.72-32.831,31.464-35.495
		c3.6-2.232,26.64-16.488,26.64-8.137c-10.296,25.704-30.24,31.536-53.496,42.192C249.017,351.836,247.721,351.98,245.849,352.052
		L245.849,352.052z"/>
	<path fill-rule="evenodd" clip-rule="evenodd" fill="#85A315" d="M344.993,288.26c0.072-1.152,0.072-2.016,0.144-2.664
		c0-0.576,0.072-1.44,0.072-2.52c0.216-3.96,0.36-8.28,0.36-12.96c0-1.368,0-2.52,0-3.384c-0.072-0.864-0.072-1.8-0.072-2.808
		c0-1.152-0.072-2.232-0.072-3.024c-0.072-0.864-0.144-1.944-0.216-3.312c0-1.296-0.072-2.736-0.144-4.248
		c0.792,0.072,1.584,0.072,2.376,0.072c0.72,0,1.728,0,2.88-0.072c0.936-0.072,2.16-0.072,3.672-0.072
		c3.744,0,6.624,0.648,8.568,2.016s2.952,3.384,2.952,6.048c0,4.248-2.52,7.056-7.56,8.352c2.952,0.288,5.256,1.152,6.768,2.592
		c1.512,1.44,2.232,3.384,2.232,5.904c0,1.944-0.504,3.744-1.512,5.256c-1.008,1.584-2.376,2.808-4.248,3.672
		c-1.8,0.864-3.816,1.296-6.048,1.296c-0.144,0-0.216,0-0.36,0c-0.072,0-0.216,0-0.432,0l-3.6-0.144
		c-1.008-0.072-1.728-0.144-2.304-0.144C347.729,288.116,346.577,288.188,344.993,288.26L344.993,288.26z M350.249,271.196v14.472
		c1.296,0.216,2.376,0.36,3.24,0.36c2.664,0,4.68-0.648,6.12-2.016c1.44-1.368,2.16-3.24,2.16-5.76c0-1.44-0.288-2.808-0.864-3.96
		c-0.648-1.152-1.44-1.944-2.448-2.448c-1.224-0.576-2.808-0.864-4.68-0.864C352.769,270.98,351.544,271.052,350.249,271.196
		L350.249,271.196z M350.249,255.86v12.96c0.36,0,0.72,0,1.08,0.072c0.288,0,0.648,0,0.936,0c2.592,0,4.608-0.576,6.048-1.8
		s2.088-2.952,2.088-5.184c0-0.864-0.072-1.656-0.36-2.448c-0.216-0.72-0.576-1.368-1.008-1.944
		c-0.432-0.576-0.864-0.936-1.44-1.224c-1.008-0.504-2.448-0.72-4.248-0.72C352.409,255.572,351.401,255.644,350.249,255.86
		L350.249,255.86z M371.849,271.268c0-2.664,0.432-5.184,1.296-7.416c0.864-2.304,2.16-4.248,3.816-5.904
		c1.656-1.656,3.6-2.952,5.832-3.816c2.304-0.864,4.752-1.296,7.416-1.296s5.112,0.432,7.416,1.296
		c2.304,0.864,4.248,2.16,5.904,3.744c1.656,1.584,2.88,3.528,3.816,5.76c0.864,2.16,1.368,4.608,1.368,7.2
		c0,2.664-0.432,5.04-1.368,7.2c-0.864,2.16-2.16,4.104-3.888,5.688c-1.656,1.584-3.6,2.808-5.904,3.672
		c-2.304,0.864-4.824,1.296-7.56,1.296c-2.592,0-5.04-0.432-7.272-1.224c-2.232-0.864-4.176-2.088-5.832-3.6
		c-1.584-1.584-2.88-3.456-3.744-5.616C372.281,276.164,371.849,273.788,371.849,271.268L371.849,271.268z M389.993,254.996
		c-2.016,0-3.888,0.36-5.472,1.08c-1.584,0.72-2.952,1.728-4.104,3.168c-1.08,1.368-1.944,3.096-2.52,5.112
		c-0.576,2.016-0.864,4.32-0.864,6.84c0,3.24,0.504,6.048,1.512,8.352c1.008,2.376,2.52,4.176,4.464,5.4
		c1.944,1.224,4.248,1.872,6.984,1.872c2.016,0,3.888-0.36,5.544-1.08c1.728-0.72,3.096-1.8,4.248-3.168
		c1.224-1.368,2.088-3.024,2.664-4.968c0.648-1.944,0.936-4.104,0.936-6.624c0-1.728-0.144-3.313-0.36-4.608
		c-0.216-1.368-0.504-2.592-1.008-3.672c-0.432-1.152-1.008-2.16-1.656-3.024c-0.648-0.864-1.512-1.656-2.448-2.232
		c-1.08-0.792-2.304-1.368-3.672-1.8C392.873,255.212,391.433,254.996,389.993,254.996L389.993,254.996z M435.496,253.34
		c-0.144,0.72-0.216,1.368-0.216,1.8c0,0.504,0.072,1.152,0.216,1.944c-2.088-0.288-4.032-0.504-5.832-0.576
		c-1.656-0.144-3.384-0.216-5.184-0.216c-0.072,2.16-0.072,4.176-0.145,6.048c0,1.944,0,2.952,0,2.952s0,0.576,0,1.728
		c0,1.08,0,2.52,0,4.32c0.072,1.8,0.072,3.96,0.145,6.408c0,1.368,0,2.52,0.071,3.456c0,1.008,0.072,2.088,0.072,3.384
		c0.072,1.368,0.072,2.52,0.145,3.672c-1.368-0.072-2.232-0.144-2.664-0.144c-0.504,0-1.368,0.072-2.664,0.144
		c0-2.304,0.072-4.032,0.144-5.256c0-2.232,0.072-4.176,0.072-5.76c0.072-1.656,0.072-3.456,0.144-5.4c0-1.944,0-3.456,0-4.536
		c0-0.576,0-1.944,0-4.104c-0.072-2.088-0.072-4.392-0.144-6.912c-1.8,0-3.528,0.072-5.184,0.216
		c-1.944,0.144-3.816,0.288-5.76,0.576c0-0.36,0.072-0.72,0.072-1.08c0.072-0.432,0.072-0.72,0.072-0.864c0-0.072,0-0.72-0.144-1.8
		c5.472,0.144,9.936,0.216,13.392,0.216S430.024,253.484,435.496,253.34L435.496,253.34z M430.024,288.26
		c0.72-1.368,1.512-2.736,2.16-4.032c0.432-0.864,0.863-1.728,1.224-2.52s1.08-2.304,2.088-4.464c0.937-2.16,1.944-4.248,2.88-6.336
		c1.944-4.104,3.384-7.416,4.464-9.792s1.872-4.248,2.521-5.688l0.864-2.088c0.792,0.144,1.439,0.216,1.943,0.216
		c0.433,0,1.08-0.072,1.8-0.216l0.576,2.016c1.584,5.04,3.313,10.224,5.256,15.479c1.584,4.464,3.24,8.712,4.896,12.6
		c0.72,1.584,1.439,3.24,2.231,4.824c-1.008-0.072-2.016-0.072-3.168-0.072c-1.08,0-2.159,0-3.239,0.072
		c-0.288-1.008-0.576-2.016-0.864-2.88c-0.288-0.936-0.576-1.872-0.864-2.808c-0.647-1.872-1.439-4.248-2.448-6.984
		c-1.943-0.072-4.031-0.072-6.191-0.072c-2.521,0-4.824,0-6.984,0.072c-1.296,2.808-2.304,5.256-3.168,7.416
		c-0.216,0.504-0.432,1.08-0.647,1.656c-0.217,0.576-0.504,1.152-0.721,1.872c-0.288,0.72-0.504,1.296-0.647,1.728
		c-0.648-0.072-1.296-0.072-2.017-0.072C431.32,288.188,430.672,288.188,430.024,288.26L430.024,288.26z M446.512,259.1
		l-6.264,13.824c1.8,0.072,3.744,0.072,5.76,0.072c1.872,0,3.744,0,5.544-0.072L446.512,259.1L446.512,259.1z M465.809,253.34
		c0.504,0.072,1.008,0.072,1.512,0.072c0.576,0,1.08,0,1.512-0.072c3.24,4.176,6.048,7.776,8.496,10.656
		c0.937,1.152,1.872,2.304,2.88,3.528c0.937,1.152,1.8,2.232,2.664,3.24c0.864,0.936,1.944,2.232,3.24,3.744
		c0.647,0.72,1.152,1.296,1.512,1.728c0.36,0.432,0.937,1.152,1.729,2.016c0.792,0.864,1.512,1.728,2.231,2.448l0.072-3.24
		c0.072-1.152,0.072-3.6,0.072-7.416v-6.048c0-0.648,0-1.368-0.072-2.304c0-0.864-0.072-1.728-0.072-2.592
		c0-0.864-0.072-1.8-0.072-2.664c0-0.864-0.071-1.944-0.071-3.096c0.504,0.072,1.008,0.072,1.584,0.072c0.504,0,1.008,0,1.439-0.072
		c-0.071,2.52-0.144,4.392-0.144,5.688c-0.072,1.656-0.145,3.528-0.145,5.616c-0.071,2.088-0.071,3.816-0.071,5.256
		c0,2.016,0,3.816,0.071,5.328c0,1.584,0,2.952,0,4.176c0.072,1.224,0.072,2.304,0.072,3.312l0.145,5.544
		c-0.576-0.072-1.08-0.072-1.656-0.072c-0.504,0-1.008,0-1.512,0.072c-2.305-2.88-3.889-4.824-4.681-5.832s-1.584-1.944-2.304-2.808
		c-0.648-0.864-1.729-2.088-3.096-3.744c-0.576-0.72-1.44-1.728-2.664-3.168c-1.152-1.368-2.017-2.448-2.593-3.096
		c-0.575-0.648-1.367-1.584-2.304-2.736c-1.008-1.152-1.872-2.16-2.664-3.024l-2.088-2.304v2.016v2.592v4.68v5.184
		c0,1.224,0,3.24,0.072,5.976c0.072,2.808,0.072,4.896,0.144,6.264c-0.504-0.072-1.008-0.072-1.512-0.072
		c-0.576,0-1.08,0-1.512,0.072c0.071-2.016,0.144-3.384,0.144-3.96c0-0.648,0.072-1.224,0.072-1.872c0-0.72,0-2.016,0.072-3.672
		c0.071-1.656,0.144-3.168,0.144-4.536s0-2.448,0-3.312c0-2.592,0-4.896-0.144-6.912C466.24,261.26,466.096,257.66,465.809,253.34
		L465.809,253.34z M504.185,253.412c1.151,0.072,2.088,0.216,2.808,0.216c0.72-0.072,1.728-0.144,2.952-0.216
		c-0.072,1.152-0.216,2.88-0.288,5.04c-0.145,4.608-0.216,9-0.216,13.176c0,1.008,0,2.016,0,3.096c0,1.008,0,2.016,0,3.024
		c0.071,3.096,0.288,6.624,0.576,10.512c-1.297-0.072-2.305-0.144-2.809-0.144c-0.576,0-1.584,0.072-2.952,0.144
		c0.145-2.376,0.216-4.104,0.288-5.184c0.145-5.544,0.288-9.576,0.288-12.096c0-2.521-0.072-4.896-0.144-7.056
		c-0.072-1.728-0.145-3.24-0.217-4.68C504.4,257.804,504.328,255.86,504.185,253.412L504.185,253.412z M546.017,255.932
		c-0.36,1.368-0.576,2.736-0.721,4.176l-0.504,0.144c-2.52-3.456-5.904-5.184-10.008-5.184c-2.664,0-4.968,0.648-6.984,1.944
		c-1.943,1.368-3.456,3.168-4.464,5.616c-1.08,2.448-1.584,5.328-1.584,8.64c0,2.232,0.288,4.32,0.937,6.192
		c0.576,1.872,1.512,3.528,2.664,4.896c1.224,1.368,2.592,2.448,4.176,3.168c1.656,0.72,3.456,1.08,5.399,1.08
		c1.872,0,3.673-0.432,5.4-1.224c1.656-0.792,3.384-2.016,5.185-3.744l0.359,0.216c-0.288,1.152-0.432,1.872-0.504,2.16
		c-0.145,1.152-0.288,1.944-0.288,2.232c-0.432,0.144-0.792,0.36-1.152,0.504c-0.288,0.144-0.575,0.288-0.863,0.432
		c-2.521,1.008-5.256,1.584-8.208,1.584c-2.664,0-5.112-0.432-7.344-1.296c-2.232-0.864-4.177-2.088-5.904-3.744
		c-1.656-1.584-2.952-3.528-3.816-5.688s-1.296-4.536-1.296-7.128c0-3.096,0.648-6.048,2.088-8.856
		c3.168-6.12,8.64-9.216,16.488-9.216c2.16,0,4.248,0.36,6.192,1.008c0.863,0.216,1.584,0.432,2.159,0.72
		C544.072,254.852,544.937,255.284,546.017,255.932L546.017,255.932z M548.968,288.26c0.072-1.224,0.072-2.088,0.145-2.52
		c0-0.504,0-1.44,0.072-2.88c0.216-3.384,0.359-7.128,0.359-11.304c0-3.384-0.072-5.976-0.144-7.704
		c-0.072-2.376-0.216-5.904-0.433-10.512c1.152,0.144,2.088,0.216,2.881,0.216c0.72,0,1.655-0.072,2.808-0.216
		c-0.216,2.88-0.288,4.68-0.288,5.328c-0.072,2.521-0.145,5.256-0.145,8.208v3.024c2.952-2.952,5.112-5.256,6.553-6.768
		c1.439-1.584,3.023-3.6,4.896-5.976c1.08-1.44,2.017-2.736,2.809-3.816c1.008,0.072,1.8,0.144,2.376,0.144
		c0.432,0,1.224-0.072,2.231-0.144c-1.296,1.224-2.592,2.52-3.96,3.888c-2.016,2.088-3.672,3.816-4.896,5.256
		c-1.296,1.44-3.168,3.672-5.688,6.552c0.504,0.648,1.368,1.8,2.736,3.384c1.296,1.656,2.304,2.952,3.023,3.816
		c0.721,0.936,1.44,1.728,2.089,2.448c0.575,0.72,1.439,1.728,2.52,3.024c1.8,2.088,3.744,4.248,5.832,6.552
		c-1.872-0.072-3.096-0.144-3.816-0.144c-0.647,0-1.943,0.072-3.672,0.144c-1.224-1.728-2.231-3.24-3.168-4.536
		c-1.439-2.016-2.808-3.816-4.176-5.472c-1.368-1.656-3.312-3.744-5.688-6.336v3.24v2.52c0,1.944,0.072,3.312,0.072,4.248
		c0.072,0.864,0.145,3.024,0.217,6.336c-1.225-0.072-2.16-0.144-2.736-0.144S550.265,288.188,548.968,288.26L548.968,288.26z
		 M571.145,253.412c1.368,0.072,2.447,0.216,3.312,0.216c0.937-0.072,2.016-0.144,3.313-0.216c1.871,3.744,3.672,7.272,5.399,10.512
		c0.576,0.936,1.152,1.872,1.729,2.88c0.575,1.08,1.368,2.376,2.376,4.032c0.359-0.72,0.72-1.368,1.08-1.944
		c0.287-0.576,0.575-1.08,0.863-1.584c0.217-0.504,0.504-1.008,0.864-1.512c0.288-0.576,0.576-1.152,0.864-1.656
		c2.16-4.176,3.888-7.776,5.256-10.728c0.648,0.072,1.296,0.072,2.016,0.072c0.721,0,1.44-0.072,2.16-0.144
		c-0.936,1.512-1.584,2.592-2.016,3.24c-0.433,0.648-0.864,1.44-1.368,2.304c-0.576,0.792-1.152,1.728-1.8,2.808
		c-0.576,1.08-1.008,1.8-1.225,2.16c-0.647,1.08-2.447,4.248-5.399,9.504v2.16v2.232c0.071,3.384,0.216,6.912,0.432,10.512
		c-1.368-0.072-2.304-0.144-2.808-0.144c-0.576,0-1.512,0.072-2.88,0.144c0.144-2.16,0.216-4.032,0.288-5.472
		c0.071-1.44,0.144-3.096,0.144-5.04c0.072-0.504,0.072-1.152,0.072-2.016v-1.368c-1.08-1.944-2.16-3.888-3.313-5.832
		c-1.08-1.944-2.016-3.528-2.735-4.68c-1.08-1.872-2.16-3.672-3.313-5.472C573.232,256.58,572.152,254.924,571.145,253.412
		L571.145,253.412z M583.096,249.596c1.44-1.656,2.376-2.808,2.881-3.456c0.72-0.936,1.584-2.16,2.592-3.528
		c0.936,0.072,1.872,0.072,2.952,0.072c1.008,0,1.943,0,2.88-0.072c-2.232,1.368-4.032,2.592-5.328,3.672
		c-1.224,1.008-2.521,2.16-3.744,3.384c-0.792-0.072-1.152-0.072-1.152-0.072C583.816,249.596,583.456,249.596,583.096,249.596
		L583.096,249.596z"/>
	<path fill-rule="evenodd" clip-rule="evenodd" fill="#85A315" d="M345.064,300.356c1.152,0.071,2.088,0.144,2.808,0.144
		c0.72,0,1.656-0.072,2.808-0.144c-0.288,4.464-0.504,7.992-0.504,10.512v2.448v5.111c0,3.961,0.144,6.553,0.288,7.561
		c0.432,2.088,1.512,3.816,3.384,5.184c1.872,1.296,4.104,1.944,6.696,1.944c1.584,0,3.024-0.288,4.392-0.792
		c1.368-0.576,2.52-1.368,3.528-2.376c1.008-1.008,1.8-2.232,2.304-3.672c0.36-0.864,0.576-2.017,0.72-3.456
		c0.144-1.44,0.216-3.096,0.216-5.04v-4.536v-1.584v-0.864c0-3.096-0.072-6.552-0.216-10.439c0.432,0.071,0.936,0.071,1.44,0.071
		s1.008,0,1.512-0.071c0,1.151-0.072,2.735-0.144,4.68c-0.072,1.944-0.072,3.888-0.144,5.832v1.729v0.647v3.888v0.433
		c0,2.592,0,4.176,0,4.752c-0.072,1.872-0.504,3.672-1.224,5.328c-0.792,1.728-1.8,3.096-3.096,4.319
		c-1.296,1.225-2.88,2.088-4.608,2.809c-1.728,0.647-3.6,0.936-5.616,0.936c-1.872,0-3.672-0.288-5.4-0.864
		c-1.656-0.575-3.24-1.439-4.608-2.592c-1.368-1.08-2.448-2.304-3.168-3.744c-0.792-1.439-1.152-2.88-1.152-4.392l0.144-6.84v-3.96
		v-2.448C345.425,308.708,345.281,305.18,345.064,300.356L345.064,300.356z M357.161,296.612c1.368-1.656,2.304-2.808,2.808-3.456
		c0.72-1.008,1.584-2.16,2.664-3.6c0.864,0.072,1.872,0.144,2.88,0.144c1.008,0,2.016-0.072,2.88-0.144
		c-1.224,0.792-2.232,1.44-3.024,2.016s-1.584,1.152-2.232,1.656c-1.44,1.224-2.664,2.304-3.744,3.456
		c-0.792-0.072-1.152-0.144-1.224-0.144C357.809,296.54,357.449,296.54,357.161,296.612L357.161,296.612z M377.681,333.404
		c0.36-0.792,0.576-1.44,0.648-2.016c0.144-0.36,0.288-1.08,0.576-2.16l0.288-0.217c0.648,1.009,1.296,1.801,2.016,2.448
		c0.72,0.72,1.512,1.225,2.376,1.513c0.864,0.359,1.8,0.504,2.808,0.504c1.296,0,2.448-0.288,3.6-0.937
		c1.08-0.576,1.944-1.368,2.592-2.448c0.576-1.008,0.864-2.159,0.864-3.384c0-1.512-0.288-2.735-0.936-3.744
		c-0.648-0.936-1.656-1.728-3.168-2.447l-4.824-2.089c-2.016-0.936-3.528-2.159-4.536-3.672c-1.08-1.512-1.584-3.239-1.584-5.184
		c0-1.8,0.504-3.456,1.512-4.968c0.936-1.513,2.304-2.736,4.104-3.528c1.728-0.864,3.744-1.296,5.976-1.296
		c2.808,0,5.4,0.72,7.632,2.16c-0.432,0.936-0.72,1.439-0.792,1.656c-0.288,0.575-0.504,1.296-0.792,2.088l-0.504,0.071
		c-0.288-0.576-0.648-1.08-1.008-1.512c-0.648-0.72-1.44-1.224-2.376-1.584c-0.936-0.432-1.944-0.576-2.88-0.576
		c-1.224,0-2.304,0.216-3.24,0.721c-1.008,0.575-1.728,1.296-2.232,2.159c-0.576,0.937-0.864,1.944-0.864,3.097
		c0,2.52,1.44,4.464,4.32,5.76l4.176,2.016c2.448,1.08,4.176,2.376,5.184,3.744c1.08,1.368,1.584,3.096,1.584,5.112
		c0,2.016-0.504,3.888-1.584,5.616c-1.08,1.655-2.52,2.951-4.392,3.96c-1.872,0.936-3.96,1.439-6.192,1.439
		C382.937,335.708,380.201,334.916,377.681,333.404L377.681,333.404z M426.928,300.356c-0.144,0.72-0.216,1.296-0.216,1.8
		c0,0.432,0.072,1.08,0.216,1.944c-2.088-0.288-4.031-0.504-5.832-0.648c-1.655-0.072-3.383-0.144-5.183-0.144
		c-0.072,2.088-0.072,4.104-0.144,6.048c0,1.943,0,2.88,0,2.952c0,0,0,0.575,0,1.728c0,1.08,0,2.521,0,4.32
		c0.072,1.8,0.072,3.96,0.144,6.408c0,1.296,0,2.52,0.072,3.456c0,0.936,0.072,2.088,0.072,3.384
		c0.072,1.296,0.072,2.52,0.144,3.672c-1.368-0.072-2.232-0.145-2.664-0.145c-0.504,0-1.368,0.072-2.736,0.145
		c0.072-2.304,0.144-4.104,0.216-5.256c0-2.232,0.072-4.177,0.072-5.832c0.072-1.584,0.072-3.384,0.145-5.328
		c0-2.017,0-3.528,0-4.536c0-0.648,0-2.016,0-4.104c-0.072-2.089-0.072-4.393-0.145-6.912c-1.8,0-3.528,0.071-5.184,0.144
		c-1.944,0.145-3.816,0.36-5.76,0.648c0-0.36,0.072-0.721,0.072-1.08c0.072-0.433,0.072-0.721,0.072-0.864c0-0.145,0-0.72-0.144-1.8
		c5.472,0.071,9.936,0.144,13.392,0.144S421.456,300.428,426.928,300.356L426.928,300.356z M424.336,335.276
		c0.792-1.368,1.513-2.736,2.16-4.104c0.432-0.863,0.864-1.655,1.224-2.447c0.433-0.864,1.08-2.305,2.089-4.465
		c1.008-2.159,1.943-4.248,2.951-6.336c1.872-4.176,3.385-7.416,4.465-9.792c1.008-2.447,1.871-4.319,2.447-5.688l0.864-2.088
		c0.792,0.071,1.44,0.144,1.944,0.144s1.08-0.072,1.872-0.144l0.575,2.016c1.513,5.04,3.24,10.225,5.185,15.48
		c1.584,4.464,3.24,8.64,4.968,12.6c0.648,1.584,1.44,3.168,2.232,4.824c-1.009-0.072-2.088-0.072-3.24-0.072
		c-1.08,0-2.16,0-3.168,0.072c-0.288-1.08-0.576-2.017-0.864-2.952c-0.36-0.864-0.647-1.8-0.864-2.736
		c-0.647-1.943-1.439-4.248-2.447-6.983c-2.017-0.072-4.104-0.072-6.265-0.072c-2.52,0-4.823,0-6.912,0.072
		c-1.296,2.735-2.376,5.256-3.168,7.416c-0.288,0.504-0.504,1.08-0.72,1.655c-0.216,0.504-0.432,1.152-0.72,1.872
		c-0.288,0.721-0.433,1.296-0.648,1.729c-0.576-0.072-1.224-0.072-1.943-0.072C425.632,335.204,424.984,335.204,424.336,335.276
		L424.336,335.276z M440.824,306.116l-6.192,13.824c1.801,0.071,3.672,0.071,5.688,0.071c1.872,0,3.744,0,5.544-0.071
		L440.824,306.116L440.824,306.116z M453.856,300.356c1.368,0.071,2.447,0.144,3.168,0.144c0.72,0,1.8-0.072,3.312-0.144
		c1.296,4.104,2.448,7.632,3.528,10.584c1.224,3.168,2.231,5.976,3.24,8.424c1.008,2.376,2.304,5.4,3.888,9
		c1.008-2.376,1.8-4.248,2.376-5.544s1.08-2.521,1.584-3.816c0.504-1.224,1.08-2.664,1.728-4.392
		c0.648-1.729,1.08-2.952,1.297-3.672c0.432-1.008,0.792-2.16,1.224-3.313c0.432-1.151,1.224-3.6,2.448-7.344
		c0.576,0.072,1.224,0.144,1.943,0.144c0.648,0,1.225,0,1.872-0.071c-0.504,0.936-0.936,1.943-1.439,3.023
		c-0.433,1.009-0.864,1.944-1.225,2.736c-0.359,0.792-0.72,1.656-1.151,2.592c-0.433,0.937-0.721,1.656-1.008,2.232
		c-0.792,1.943-2.376,5.903-4.824,12.023c-0.576,1.656-1.008,2.88-1.296,3.528c-0.217,0.648-0.504,1.368-0.792,2.088
		s-0.648,1.729-1.08,3.024c-0.433,1.224-0.937,2.447-1.368,3.672c-0.504-0.072-1.08-0.072-1.656-0.072c-0.647,0-1.224,0-1.728,0.072
		c-0.937-2.664-1.656-4.752-2.232-6.336s-1.296-3.601-2.16-5.977c-1.872-4.896-3.527-8.928-4.896-12.023
		C457.456,308.132,455.872,304.604,453.856,300.356L453.856,300.356z M495.256,335.276c0.648-1.152,1.225-2.232,1.8-3.384
		c0.36-0.648,0.721-1.368,1.009-2.017c0.288-0.647,0.863-1.872,1.728-3.6c0.792-1.8,1.584-3.528,2.376-5.256
		c1.513-3.384,2.736-6.048,3.672-7.992c0.864-1.944,1.513-3.528,2.017-4.68l0.72-1.729c0.648,0.145,1.152,0.216,1.584,0.216
		c0.36,0,0.864-0.071,1.512-0.216l0.433,1.729c1.296,4.104,2.735,8.352,4.248,12.672c1.367,3.6,2.735,7.056,4.104,10.296
		c0.576,1.296,1.152,2.592,1.8,3.96c-0.792-0.072-1.655-0.072-2.592-0.072c-0.936,0-1.8,0-2.664,0.072
		c-0.216-0.864-0.432-1.656-0.72-2.376c-0.216-0.792-0.432-1.512-0.72-2.304c-0.505-1.585-1.152-3.456-1.944-5.688
		c-1.656-0.072-3.384-0.072-5.112-0.072c-2.088,0-3.96,0-5.688,0.072c-1.08,2.232-1.944,4.248-2.592,6.048
		c-0.217,0.433-0.433,0.864-0.576,1.368c-0.216,0.432-0.36,0.936-0.576,1.512s-0.432,1.08-0.504,1.44
		c-0.504-0.072-1.08-0.072-1.656-0.072S495.832,335.204,495.256,335.276L495.256,335.276z M508.792,311.372l-5.111,11.304
		c1.512,0.072,3.023,0.072,4.68,0.072c1.584,0,3.096,0,4.536-0.072L508.792,311.372L508.792,311.372z M519.448,306.62
		c1.152,0.145,2.016,0.145,2.592,0.145s1.512,0,2.736-0.145c1.008,3.456,2.016,6.336,2.88,8.712
		c0.936,2.592,1.872,4.896,2.664,6.912c0.792,1.944,1.872,4.393,3.168,7.344c0.864-1.943,1.512-3.456,1.944-4.536
		c0.432-1.008,0.863-2.088,1.296-3.096c0.432-1.008,0.863-2.231,1.367-3.6c0.576-1.44,0.937-2.448,1.152-3.024
		c0.288-0.864,0.648-1.728,0.937-2.735c0.359-0.937,1.008-2.952,2.016-5.977c0.504,0.072,1.008,0.145,1.584,0.145
		s1.08-0.072,1.584-0.145c-0.432,0.864-0.792,1.656-1.152,2.521c-0.432,0.863-0.72,1.584-1.008,2.231
		c-0.359,0.648-0.647,1.368-1.008,2.16c-0.288,0.72-0.576,1.368-0.792,1.8c-0.648,1.584-2.016,4.896-3.96,9.864
		c-0.504,1.368-0.864,2.304-1.08,2.88c-0.145,0.504-0.36,1.08-0.648,1.729c-0.216,0.575-0.504,1.367-0.863,2.447
		c-0.36,1.008-0.721,2.017-1.152,3.024c-0.36-0.072-0.864-0.072-1.368-0.072s-0.936,0-1.368,0.072
		c-0.792-2.16-1.367-3.888-1.872-5.185c-0.432-1.296-1.008-2.951-1.728-4.896c-1.584-4.032-2.88-7.272-4.032-9.864
		C522.4,313.028,521.104,310.148,519.448,306.62L519.448,306.62z M579.568,308.78c-0.288,1.08-0.504,2.231-0.648,3.384l-0.359,0.145
		c-2.089-2.809-4.824-4.248-8.28-4.248c-2.16,0-4.032,0.576-5.616,1.655c-1.656,1.009-2.88,2.593-3.744,4.536
		c-0.864,2.017-1.296,4.393-1.296,7.057c0,1.871,0.288,3.527,0.792,5.111c0.504,1.513,1.224,2.88,2.232,4.032
		c0.936,1.08,2.088,1.944,3.384,2.521c1.296,0.575,2.808,0.863,4.464,0.863c1.512,0,2.952-0.288,4.32-0.936
		c1.439-0.648,2.88-1.656,4.319-3.024l0.288,0.145c-0.216,0.936-0.359,1.512-0.432,1.728c-0.144,1.008-0.216,1.584-0.216,1.872
		c-0.36,0.145-0.648,0.288-0.937,0.36c-0.288,0.144-0.504,0.288-0.72,0.359c-2.016,0.864-4.32,1.297-6.768,1.297
		c-2.16,0-4.177-0.36-5.977-1.009c-1.872-0.72-3.456-1.728-4.824-3.096c-1.367-1.296-2.447-2.88-3.168-4.68
		c-0.72-1.729-1.08-3.673-1.08-5.832c0-2.521,0.576-4.969,1.801-7.272c2.52-4.968,7.056-7.488,13.464-7.488
		c1.728,0,3.456,0.288,5.112,0.792c0.647,0.145,1.224,0.36,1.728,0.576C577.984,307.916,578.632,308.276,579.568,308.78
		L579.568,308.78z M562.648,298.845c0.504-0.072,0.936-0.216,1.296-0.433c0.359-0.144,0.792-0.36,1.224-0.648
		c0.864,0.865,1.656,1.728,2.376,2.448c0.504,0.36,0.792,0.576,0.864,0.648c0.144,0.072,0.36,0.288,0.576,0.432
		c0.216,0.216,0.576,0.433,0.936,0.72c0.648-0.647,1.152-1.224,1.513-1.728c0.575-0.864,1.08-1.655,1.439-2.52
		c0.864,0.432,1.729,0.72,2.664,0.792c-1.008,0.936-1.872,1.871-2.52,2.664c-0.504,0.647-1.009,1.439-1.584,2.376h-2.736
		c-1.008-1.009-1.944-1.872-2.88-2.593C564.664,300.141,563.656,299.42,562.648,298.845L562.648,298.845z M582.736,335.276
		c0.072-1.008,0.072-1.729,0.072-2.232c0.071-0.432,0.071-1.151,0.144-2.16c0.144-3.023,0.216-6.479,0.216-10.151
		c0-1.152,0-2.952-0.072-5.4c-0.071-3.96-0.216-6.84-0.287-8.64c0.936,0.072,1.584,0.144,2.088,0.144
		c0.792,0,1.872-0.071,3.239-0.216c0.937-0.072,1.801-0.072,2.736-0.072c1.872,0,3.528,0.288,4.896,0.792
		c1.296,0.576,2.376,1.368,3.096,2.448s1.08,2.376,1.08,3.816c0,1.368-0.36,2.735-1.225,3.96c-0.792,1.296-1.8,2.231-3.096,2.735
		c-0.647,0.288-1.296,0.505-1.872,0.576c-0.647,0.145-1.368,0.216-2.088,0.288c0.072,0.145,0.145,0.216,0.216,0.288
		c0.072,0.145,0.145,0.216,0.216,0.36c0.072,0.071,0.145,0.144,0.145,0.216c0.072,0.072,0.144,0.216,0.216,0.288
		c0.576,0.72,1.152,1.439,1.656,2.16c0.576,0.72,1.296,1.584,2.16,2.735c1.151,1.296,3.527,3.96,7.199,8.064
		c-1.367-0.072-2.304-0.145-2.808-0.145c-0.647,0-1.656,0.072-3.096,0.145c-1.08-1.656-2.017-3.097-2.88-4.248
		c-0.864-1.152-1.729-2.376-2.736-3.672c-1.656-2.088-3.313-4.032-4.896-5.832c0,0.359,0,0.792,0,1.368
		c0,0.575-0.071,0.936-0.071,1.224c0,0.216,0,0.504,0,0.792v1.729c0.071,2.735,0.144,5.615,0.288,8.64
		c-1.08-0.072-1.872-0.145-2.305-0.145C584.536,335.132,583.816,335.204,582.736,335.276L582.736,335.276z M587.056,308.78
		l-0.071,11.16c0.504,0.071,1.151,0.144,1.872,0.144c2.231,0,3.96-0.576,5.184-1.584c1.152-1.008,1.8-2.448,1.8-4.392
		c0-1.152-0.288-2.16-0.72-3.024c-0.504-0.936-1.08-1.512-1.872-1.872c-0.864-0.432-2.016-0.647-3.384-0.647
		C588.928,308.564,587.992,308.637,587.056,308.78L587.056,308.78z"/>
	<path fill-rule="evenodd" clip-rule="evenodd" fill="#85A315" d="M602.758,355.22c0-0.432,0.144-0.792,0.432-1.079
		c0.288-0.288,0.648-0.433,1.08-0.433c0.36,0,0.72,0.145,1.008,0.433c0.288,0.287,0.433,0.647,0.433,1.008
		c0,0.432-0.145,0.792-0.433,1.08s-0.647,0.432-1.008,0.432c-0.432,0-0.792-0.144-1.08-0.432S602.758,355.58,602.758,355.22
		L602.758,355.22z"/>
	<path fill-rule="evenodd" clip-rule="evenodd" fill="#85A315" d="M597.718,340.82c0-0.432,0.144-0.72,0.432-1.008
		s0.576-0.433,0.937-0.433c0.288,0,0.504,0.072,0.72,0.217c0.216,0.071,0.432,0.287,0.504,0.504c0.144,0.216,0.216,0.432,0.216,0.72
		c0,0.359-0.144,0.72-0.432,1.008c-0.288,0.216-0.576,0.36-1.008,0.36c-0.36,0-0.648-0.145-0.937-0.36
		C597.861,341.54,597.718,341.18,597.718,340.82L597.718,340.82z"/>
	<path fill-rule="evenodd" clip-rule="evenodd" fill="#85A315" d="M597.861,356.372c0.072-1.08,0.145-1.8,0.145-2.304
		c0.071-0.576,0.071-1.008,0.071-1.512c0-0.505,0-1.08,0-1.872v-1.44c0-1.728-0.071-3.456-0.144-5.328
		c0.36,0.072,0.792,0.145,1.152,0.145c0.432,0,0.863-0.072,1.224-0.145c-0.072,1.08-0.072,2.088-0.145,2.88c0,0.864,0,1.656,0,2.448
		c0,0.648,0,1.296,0,1.8s0.072,1.368,0.072,2.448c0,1.152,0,2.088,0.072,2.88c-0.576-0.072-1.008-0.072-1.224-0.072
		C598.869,356.3,598.438,356.3,597.861,356.372L597.861,356.372z"/>
	<path fill-rule="evenodd" clip-rule="evenodd" fill="#85A315" d="M588.237,355.22c0-0.432,0.145-0.792,0.433-1.079
		c0.288-0.288,0.647-0.433,1.08-0.433c0.359,0,0.72,0.145,1.008,0.433c0.288,0.287,0.432,0.647,0.432,1.008
		c0,0.432-0.144,0.792-0.432,1.08s-0.648,0.432-1.008,0.432c-0.433,0-0.792-0.144-1.08-0.432S588.237,355.58,588.237,355.22
		L588.237,355.22z"/>
	<path fill-rule="evenodd" clip-rule="evenodd" fill="#85A315" d="M578.669,343.916c0.432,0.072,0.863,0.145,1.367,0.145
		c0.433,0,0.864-0.072,1.296-0.145c0.145,0.648,0.36,1.08,0.433,1.368c0.144,0.36,0.216,0.72,0.432,1.152
		c0.145,0.504,0.288,0.863,0.36,1.08c0.288,0.72,0.504,1.367,0.72,1.943s0.432,1.152,0.648,1.729
		c0.216,0.576,0.576,1.512,1.08,2.735c1.079-2.592,1.943-4.752,2.52-6.407c0.288-0.721,0.576-1.368,0.72-1.801
		c0.145-0.432,0.36-1.079,0.576-1.8c0.216,0.072,0.504,0.145,0.792,0.145s0.576-0.072,0.792-0.145
		c-0.792,1.729-1.296,2.952-1.512,3.601c-0.433,0.936-0.864,1.943-1.296,3.168c-0.721,1.8-1.152,2.88-1.296,3.239l-0.937,2.448
		c-0.432-0.072-0.72-0.072-0.863-0.072c-0.145,0-0.433,0-0.793,0.072c-0.432-1.08-0.647-1.728-0.792-2.088
		c-0.144-0.36-0.359-0.864-0.575-1.44c-0.217-0.575-0.36-1.079-0.576-1.584c-0.145-0.432-0.288-0.72-0.36-0.936
		c-0.432-1.008-0.864-1.944-1.224-2.808C579.46,345.788,578.956,344.637,578.669,343.916L578.669,343.916z"/>
	<path fill-rule="evenodd" clip-rule="evenodd" fill="#85A315" d="M570.15,355.22c0-0.432,0.145-0.792,0.433-1.079
		c0.287-0.288,0.647-0.433,1.08-0.433c0.359,0,0.72,0.145,1.008,0.433c0.288,0.287,0.432,0.647,0.432,1.008
		c0,0.432-0.144,0.792-0.432,1.08s-0.648,0.432-1.008,0.432c-0.433,0-0.793-0.144-1.08-0.432
		C570.295,355.94,570.15,355.58,570.15,355.22L570.15,355.22z"/>
	<path fill-rule="evenodd" clip-rule="evenodd" fill="#85A315" d="M560.704,343.916c0.432,0.072,0.864,0.145,1.368,0.145
		c0.432,0,0.864-0.072,1.296-0.145c0.216,0.648,0.36,1.08,0.432,1.368c0.145,0.36,0.288,0.72,0.433,1.152
		c0.144,0.504,0.288,0.863,0.359,1.08c0.288,0.72,0.504,1.367,0.721,1.943c0.216,0.576,0.432,1.152,0.647,1.729
		s0.576,1.512,1.08,2.735c1.08-2.592,1.944-4.752,2.521-6.407c0.288-0.721,0.575-1.368,0.72-1.801
		c0.144-0.432,0.359-1.079,0.576-1.8c0.216,0.072,0.504,0.145,0.792,0.145s0.575-0.072,0.792-0.145
		c-0.721,1.729-1.296,2.952-1.513,3.601c-0.432,0.936-0.863,1.943-1.296,3.168c-0.72,1.8-1.151,2.88-1.296,3.239l-0.936,2.448
		c-0.433-0.072-0.72-0.072-0.864-0.072c-0.144,0-0.432,0-0.792,0.072c-0.432-1.08-0.648-1.728-0.792-2.088s-0.36-0.864-0.576-1.44
		c-0.216-0.575-0.359-1.079-0.576-1.584c-0.144-0.432-0.287-0.72-0.359-0.936c-0.433-1.008-0.864-1.944-1.225-2.808
		C561.496,345.788,560.992,344.637,560.704,343.916L560.704,343.916z"/>
</g>
</svg>
