<?xml version="1.0" encoding="utf-8"?>
<!-- Generator: Adobe Illustrator 16.0.0, SVG Export Plug-In . SVG Version: 6.00 Build 0)  -->
<!DOCTYPE svg PUBLIC "-//W3C//DTD SVG 1.1//EN" "http://www.w3.org/Graphics/SVG/1.1/DTD/svg11.dtd">
<svg version="1.1" id="Vrstva_1" xmlns="http://www.w3.org/2000/svg" xmlns:xlink="http://www.w3.org/1999/xlink" x="0px" y="0px"
	 width="841.89px" height="595.28px" viewBox="0 0 841.89 595.28" enable-background="new 0 0 841.89 595.28" xml:space="preserve">
<g>
	<path fill-rule="evenodd" clip-rule="evenodd" fill="#85A315" d="M460.479,182.106c19.515,5.122,33.909,20.465,41.722,41.707
		c8.089,21.998,9.345,50.967,1.159,82.316c-8.705,33.316-26.346,62.982-48.235,83.403c-22.847,21.314-49.684,31.945-74.033,25.855
		c-24.439-6.108-40.53-27.548-46.506-56.261c-5.733-27.536-1.978-61.026,11.701-93.347c12.858-30.392,32.223-54.255,52.937-68.859
		C419.157,182.866,440.964,176.984,460.479,182.106L460.479,182.106z M370.684,394.969c-24.868-27.175-20.556-95.463-7.921-127.65
		c18.45-35.598,20.255-38.808,25.169,5.515c4.211,51.04-4.112,46.627,25.771,4.312c17.648-16.545,33.693-34.896,52.344-51.04
		c3.208-6.017,4.612-14.239,13.437-13.437c5.114,4.312-0.602,8.623-4.011,12.233c-31.587,18.451-92.555,77.012-88.744,119.127
		c8.022-4.011,13.738-25.169,22.562-32.288c23.464-29.882,52.544-43.219,79.418-68.388c14.139-6.017,6.317,13.036-9.526,13.036
		c-42.517,26.773-69.993,54.349-92.454,99.271C373.893,361.376,381.815,392.763,370.684,394.969L370.684,394.969z M393.748,362.58
		c-9.226-7.32,42.015-49.437,49.937-55.252c8.122-5.215,56.957-42.417,59.564-27.977c-5.415,9.727-10.63,8.423-19.253,8.423
		c-34.295,17.146-66.884,40.611-87.541,73.602C395.252,362.278,395.252,362.278,393.748,362.58L393.748,362.58z M369.681,407.002
		c-9.225-7.621,48.233-57.057,54.851-61.77c6.217-3.811,46.227-28.579,46.227-14.14c-17.849,44.724-52.544,54.852-93.055,73.402
		C375.197,406.601,372.991,406.901,369.681,407.002L369.681,407.002z"/>
</g>
</svg>
